<svg width="339" height="218" viewBox="0 0 339 218" fill="none" xmlns="http://www.w3.org/2000/svg">
<path opacity="0.5" d="M240.207 26.3063C219.522 8.44687 193.044 -0.87202 165.651 0.0642769C138.114 1.0059 112.213 12.2604 92.7192 31.7545C73.225 51.2487 61.9706 77.1497 61.0289 104.686C60.0922 132.08 69.412 158.558 87.2709 179.242C87.9892 180.074 89.0026 180.501 90.0222 180.501C90.863 180.501 91.7083 180.211 92.3946 179.618C93.9132 178.307 94.0812 176.013 92.77 174.494C76.11 155.198 67.4159 130.494 68.2897 104.934C69.1679 79.2436 79.6682 55.0791 97.856 36.8913C116.044 18.7035 140.208 8.20323 165.899 7.32506C191.46 6.45609 216.163 15.1453 235.459 31.8054C236.978 33.1166 239.272 32.9485 240.582 31.43C241.894 29.9115 241.726 27.6175 240.207 26.3063Z" fill="#CC46A6" fill-opacity="0.5"/>
<path opacity="0.5" d="M250.635 37.7599C249.324 36.2409 247.03 36.0729 245.512 37.3846C243.993 38.6958 243.825 40.9898 245.136 42.5083C261.796 61.8043 270.491 86.5079 269.617 112.068C268.739 137.759 258.238 161.923 240.05 180.111C221.863 198.299 197.698 208.799 172.008 209.677C146.451 210.551 121.744 201.857 102.448 185.197C100.929 183.886 98.6347 184.054 97.324 185.572C96.0128 187.091 96.1809 189.385 97.6994 190.696C117.436 207.736 142.447 217.002 168.495 217.002C169.746 217.002 171 216.981 172.256 216.938C199.793 215.996 225.694 204.742 245.188 185.248C264.682 165.754 275.936 139.853 276.878 112.316C277.814 84.9231 268.494 58.4447 250.635 37.7599Z" fill="#BA90B6" fill-opacity="0.3"/>
<g filter="url(#filter0_d)">
<rect x="6.5" y="75.3901" width="326" height="66" rx="33" stroke="#CC46A6" stroke-width="4"/>
</g>
<g filter="url(#filter1_d)">
<path d="M51.6882 98.3901H61.2282C63.5082 98.3901 65.5182 98.8301 67.2582 99.7101C69.0182 100.57 70.3782 101.79 71.3382 103.37C72.3182 104.95 72.8082 106.79 72.8082 108.89C72.8082 110.99 72.3182 112.83 71.3382 114.41C70.3782 115.99 69.0182 117.22 67.2582 118.1C65.5182 118.96 63.5082 119.39 61.2282 119.39H51.6882V98.3901ZM60.9882 115.4C63.0882 115.4 64.7582 114.82 65.9982 113.66C67.2582 112.48 67.8882 110.89 67.8882 108.89C67.8882 106.89 67.2582 105.31 65.9982 104.15C64.7582 102.97 63.0882 102.38 60.9882 102.38H56.5482V115.4H60.9882ZM92.6434 119.75C90.4634 119.75 88.4934 119.28 86.7334 118.34C84.9934 117.4 83.6234 116.11 82.6234 114.47C81.6434 112.81 81.1534 110.95 81.1534 108.89C81.1534 106.83 81.6434 104.98 82.6234 103.34C83.6234 101.68 84.9934 100.38 86.7334 99.4401C88.4934 98.5001 90.4634 98.0301 92.6434 98.0301C94.8234 98.0301 96.7834 98.5001 98.5234 99.4401C100.263 100.38 101.633 101.68 102.633 103.34C103.633 104.98 104.133 106.83 104.133 108.89C104.133 110.95 103.633 112.81 102.633 114.47C101.633 116.11 100.263 117.4 98.5234 118.34C96.7834 119.28 94.8234 119.75 92.6434 119.75ZM92.6434 115.61C93.8834 115.61 95.0034 115.33 96.0034 114.77C97.0034 114.19 97.7834 113.39 98.3434 112.37C98.9234 111.35 99.2134 110.19 99.2134 108.89C99.2134 107.59 98.9234 106.43 98.3434 105.41C97.7834 104.39 97.0034 103.6 96.0034 103.04C95.0034 102.46 93.8834 102.17 92.6434 102.17C91.4034 102.17 90.2834 102.46 89.2834 103.04C88.2834 103.6 87.4934 104.39 86.9134 105.41C86.3534 106.43 86.0734 107.59 86.0734 108.89C86.0734 110.19 86.3534 111.35 86.9134 112.37C87.4934 113.39 88.2834 114.19 89.2834 114.77C90.2834 115.33 91.4034 115.61 92.6434 115.61ZM144.823 98.3901L137.953 119.39H132.733L128.113 105.17L123.343 119.39H118.153L111.253 98.3901H116.293L121.033 113.15L125.983 98.3901H130.483L135.283 113.27L140.173 98.3901H144.823ZM172.796 98.3901V119.39H168.806L158.336 106.64V119.39H153.536V98.3901H157.556L167.996 111.14V98.3901H172.796ZM183.764 98.3901H188.624V115.43H199.154V119.39H183.764V98.3901ZM217.688 119.75C215.508 119.75 213.538 119.28 211.778 118.34C210.038 117.4 208.668 116.11 207.668 114.47C206.688 112.81 206.198 110.95 206.198 108.89C206.198 106.83 206.688 104.98 207.668 103.34C208.668 101.68 210.038 100.38 211.778 99.4401C213.538 98.5001 215.508 98.0301 217.688 98.0301C219.868 98.0301 221.828 98.5001 223.568 99.4401C225.308 100.38 226.678 101.68 227.678 103.34C228.678 104.98 229.178 106.83 229.178 108.89C229.178 110.95 228.678 112.81 227.678 114.47C226.678 116.11 225.308 117.4 223.568 118.34C221.828 119.28 219.868 119.75 217.688 119.75ZM217.688 115.61C218.928 115.61 220.048 115.33 221.048 114.77C222.048 114.19 222.828 113.39 223.388 112.37C223.968 111.35 224.258 110.19 224.258 108.89C224.258 107.59 223.968 106.43 223.388 105.41C222.828 104.39 222.048 103.6 221.048 103.04C220.048 102.46 218.928 102.17 217.688 102.17C216.448 102.17 215.328 102.46 214.328 103.04C213.328 103.6 212.538 104.39 211.958 105.41C211.398 106.43 211.118 107.59 211.118 108.89C211.118 110.19 211.398 111.35 211.958 112.37C212.538 113.39 213.328 114.19 214.328 114.77C215.328 115.33 216.448 115.61 217.688 115.61ZM252.368 114.89H242.618L240.758 119.39H235.778L245.138 98.3901H249.938L259.328 119.39H254.228L252.368 114.89ZM250.838 111.2L247.508 103.16L244.178 111.2H250.838ZM267.507 98.3901H277.047C279.327 98.3901 281.337 98.8301 283.077 99.7101C284.837 100.57 286.197 101.79 287.157 103.37C288.137 104.95 288.627 106.79 288.627 108.89C288.627 110.99 288.137 112.83 287.157 114.41C286.197 115.99 284.837 117.22 283.077 118.1C281.337 118.96 279.327 119.39 277.047 119.39H267.507V98.3901ZM276.807 115.4C278.907 115.4 280.577 114.82 281.817 113.66C283.077 112.48 283.707 110.89 283.707 108.89C283.707 106.89 283.077 105.31 281.817 104.15C280.577 102.97 278.907 102.38 276.807 102.38H272.367V115.4H276.807Z" fill="white"/>
<path d="M51.6882 98.3901V97.3901H50.6882V98.3901H51.6882ZM67.2582 99.7101L66.8069 100.603L66.8192 100.609L67.2582 99.7101ZM71.3382 103.37L70.4836 103.889L70.4884 103.897L71.3382 103.37ZM71.3382 114.41L70.4884 113.883L70.4836 113.891L71.3382 114.41ZM67.2582 118.1L67.7013 118.997L67.7055 118.995L67.2582 118.1ZM51.6882 119.39H50.6882V120.39H51.6882V119.39ZM65.9982 113.66L66.6814 114.39L66.6818 114.39L65.9982 113.66ZM65.9982 104.15L65.3089 104.875L65.3149 104.88L65.3209 104.886L65.9982 104.15ZM56.5482 102.38V101.38H55.5482V102.38H56.5482ZM56.5482 115.4H55.5482V116.4H56.5482V115.4ZM51.6882 99.3901H61.2282V97.3901H51.6882V99.3901ZM61.2282 99.3901C63.378 99.3901 65.2287 99.8043 66.8069 100.603L67.7096 98.8178C65.8078 97.8559 63.6385 97.3901 61.2282 97.3901V99.3901ZM66.8192 100.609C68.418 101.39 69.629 102.483 70.4836 103.889L72.1929 102.851C71.1274 101.097 69.6185 99.7504 67.6973 98.8117L66.8192 100.609ZM70.4884 103.897C71.358 105.299 71.8082 106.952 71.8082 108.89H73.8082C73.8082 106.629 73.2785 104.601 72.188 102.843L70.4884 103.897ZM71.8082 108.89C71.8082 110.829 71.358 112.481 70.4884 113.883L72.188 114.937C73.2785 113.179 73.8082 111.152 73.8082 108.89H71.8082ZM70.4836 113.891C69.6278 115.299 68.4139 116.404 66.811 117.206L67.7055 118.995C69.6226 118.036 71.1287 116.681 72.1929 114.929L70.4836 113.891ZM66.8152 117.204C65.235 117.985 63.3813 118.39 61.2282 118.39V120.39C63.6352 120.39 65.8014 119.936 67.7013 118.997L66.8152 117.204ZM61.2282 118.39H51.6882V120.39H61.2282V118.39ZM52.6882 119.39V98.3901H50.6882V119.39H52.6882ZM60.9882 116.4C63.2789 116.4 65.2147 115.762 66.6814 114.39L65.3151 112.93C64.3017 113.878 62.8976 114.4 60.9882 114.4V116.4ZM66.6818 114.39C68.1762 112.991 68.8882 111.119 68.8882 108.89H66.8882C66.8882 110.662 66.3403 111.97 65.3147 112.93L66.6818 114.39ZM68.8882 108.89C68.8882 106.662 68.1762 104.796 66.6756 103.414L65.3209 104.886C66.3403 105.824 66.8882 107.118 66.8882 108.89H68.8882ZM66.6876 103.426C65.2215 102.031 63.2835 101.38 60.9882 101.38V103.38C62.893 103.38 64.295 103.91 65.3089 104.875L66.6876 103.426ZM60.9882 101.38H56.5482V103.38H60.9882V101.38ZM55.5482 102.38V115.4H57.5482V102.38H55.5482ZM56.5482 116.4H60.9882V114.4H56.5482V116.4ZM86.7334 118.34L86.2581 119.22L86.2623 119.222L86.7334 118.34ZM82.6234 114.47L81.7623 114.979L81.7659 114.985L81.7696 114.991L82.6234 114.47ZM82.6234 103.34L81.7668 102.824L81.765 102.827L82.6234 103.34ZM86.7334 99.4401L86.2623 98.5581L86.2581 98.5603L86.7334 99.4401ZM102.633 103.34L101.777 103.856L101.78 103.861L102.633 103.34ZM102.633 114.47L103.487 114.991L103.49 114.986L102.633 114.47ZM98.5234 118.34L98.9987 119.22L98.5234 118.34ZM96.0034 114.77L96.492 115.643L96.4986 115.639L96.5051 115.635L96.0034 114.77ZM98.3434 112.37L97.4741 111.876L97.4704 111.882L97.4668 111.889L98.3434 112.37ZM98.3434 105.41L97.4668 105.891L97.4704 105.898L97.4741 105.904L98.3434 105.41ZM96.0034 103.04L95.5017 103.905L95.5082 103.909L95.5148 103.913L96.0034 103.04ZM89.2834 103.04L89.772 103.913L89.7786 103.909L89.7851 103.905L89.2834 103.04ZM86.9134 105.41L86.0441 104.916L86.0404 104.922L86.0368 104.929L86.9134 105.41ZM86.9134 112.37L86.0368 112.851L86.0404 112.858L86.0441 112.864L86.9134 112.37ZM89.2834 114.77L88.7817 115.635L88.7882 115.639L88.7948 115.643L89.2834 114.77ZM92.6434 118.75C90.6122 118.75 88.8064 118.314 87.2045 117.458L86.2623 119.222C88.1804 120.247 90.3146 120.75 92.6434 120.75V118.75ZM87.2087 117.46C85.6196 116.602 84.3822 115.434 83.4772 113.95L81.7696 114.991C82.8646 116.786 84.3672 118.198 86.2581 119.22L87.2087 117.46ZM83.4845 113.962C82.6017 112.466 82.1534 110.784 82.1534 108.89H80.1534C80.1534 111.116 80.6851 113.154 81.7623 114.979L83.4845 113.962ZM82.1534 108.89C82.1534 106.996 82.6017 105.326 83.4818 103.853L81.765 102.827C80.6851 104.634 80.1534 106.664 80.1534 108.89H82.1534ZM83.48 103.856C84.3857 102.353 85.6227 101.177 87.2087 100.32L86.2581 98.5603C84.3641 99.5835 82.8611 101.008 81.7668 102.824L83.48 103.856ZM87.2045 100.322C88.8064 99.4666 90.6122 99.0301 92.6434 99.0301V97.0301C90.3146 97.0301 88.1804 97.5336 86.2623 98.5581L87.2045 100.322ZM92.6434 99.0301C94.6748 99.0301 96.4686 99.4667 98.0481 100.32L98.9987 98.5603C97.0982 97.5336 94.972 97.0301 92.6434 97.0301V99.0301ZM98.0481 100.32C99.6341 101.177 100.871 102.353 101.777 103.856L103.49 102.824C102.396 101.008 100.893 99.5835 98.9987 98.5603L98.0481 100.32ZM101.78 103.861C102.677 105.333 103.133 107 103.133 108.89H105.133C105.133 106.66 104.59 104.628 103.487 102.82L101.78 103.861ZM103.133 108.89C103.133 110.78 102.677 112.46 101.777 113.954L103.49 114.986C104.59 113.16 105.133 111.12 105.133 108.89H103.133ZM101.78 113.95C100.875 115.434 99.6372 116.602 98.0481 117.46L98.9987 119.22C100.89 118.198 102.392 116.786 103.487 114.991L101.78 113.95ZM98.0481 117.46C96.4686 118.314 94.6748 118.75 92.6434 118.75V120.75C94.972 120.75 97.0982 120.247 98.9987 119.22L98.0481 117.46ZM92.6434 116.61C94.0401 116.61 95.3306 116.293 96.492 115.643L95.5148 113.898C94.6762 114.367 93.7267 114.61 92.6434 114.61V116.61ZM96.5051 115.635C97.6638 114.963 98.5729 114.03 99.22 112.851L97.4668 111.889C96.9939 112.75 96.343 113.417 95.5017 113.905L96.5051 115.635ZM99.2127 112.864C99.8874 111.678 100.213 110.344 100.213 108.89H98.2134C98.2134 110.036 97.9594 111.022 97.4741 111.876L99.2127 112.864ZM100.213 108.89C100.213 107.436 99.8874 106.102 99.2127 104.916L97.4741 105.904C97.9594 106.758 98.2134 107.744 98.2134 108.89H100.213ZM99.22 104.929C98.5713 103.747 97.658 102.821 96.492 102.168L95.5148 103.913C96.3488 104.38 96.9955 105.033 97.4668 105.891L99.22 104.929ZM96.5051 102.175C95.3416 101.5 94.0464 101.17 92.6434 101.17V103.17C93.7204 103.17 94.6652 103.42 95.5017 103.905L96.5051 102.175ZM92.6434 101.17C91.2404 101.17 89.9452 101.5 88.7817 102.175L89.7851 103.905C90.6216 103.42 91.5664 103.17 92.6434 103.17V101.17ZM88.7948 102.168C87.6319 102.819 86.7119 103.741 86.0441 104.916L87.7827 105.904C88.2749 105.039 88.9349 104.381 89.772 103.913L88.7948 102.168ZM86.0368 104.929C85.3867 106.113 85.0734 107.442 85.0734 108.89H87.0734C87.0734 107.738 87.3201 106.747 87.79 105.891L86.0368 104.929ZM85.0734 108.89C85.0734 110.338 85.3867 111.667 86.0368 112.851L87.79 111.889C87.3201 111.033 87.0734 110.042 87.0734 108.89H85.0734ZM86.0441 112.864C86.7103 114.036 87.6261 114.965 88.7817 115.635L89.7851 113.905C88.9407 113.415 88.2765 112.744 87.7827 111.876L86.0441 112.864ZM88.7948 115.643C89.9562 116.293 91.2467 116.61 92.6434 116.61V114.61C91.5601 114.61 90.6106 114.367 89.772 113.898L88.7948 115.643ZM144.823 98.3901L145.773 98.7011L146.202 97.3901H144.823V98.3901ZM137.953 119.39V120.39H138.678L138.903 119.701L137.953 119.39ZM132.733 119.39L131.782 119.699L132.006 120.39H132.733V119.39ZM128.113 105.17L129.064 104.861L128.128 101.981L127.165 104.852L128.113 105.17ZM123.343 119.39V120.39H124.062L124.291 119.708L123.343 119.39ZM118.153 119.39L117.203 119.702L117.429 120.39H118.153V119.39ZM111.253 98.3901V97.3901H109.872L110.303 98.7023L111.253 98.3901ZM116.293 98.3901L117.245 98.0844L117.022 97.3901H116.293V98.3901ZM121.033 113.15L120.081 113.456L121.012 116.357L121.981 113.468L121.033 113.15ZM125.983 98.3901V97.3901H125.263L125.035 98.0722L125.983 98.3901ZM130.483 98.3901L131.434 98.0831L131.211 97.3901H130.483V98.3901ZM135.283 113.27L134.331 113.577L135.274 116.5L136.233 113.582L135.283 113.27ZM140.173 98.3901V97.3901H139.449L139.223 98.0779L140.173 98.3901ZM143.872 98.0792L137.002 119.079L138.903 119.701L145.773 98.7011L143.872 98.0792ZM137.953 118.39H132.733V120.39H137.953V118.39ZM133.684 119.081L129.064 104.861L127.162 105.479L131.782 119.699L133.684 119.081ZM127.165 104.852L122.395 119.072L124.291 119.708L129.061 105.488L127.165 104.852ZM123.343 118.39H118.153V120.39H123.343V118.39ZM119.103 119.078L112.203 98.078L110.303 98.7023L117.203 119.702L119.103 119.078ZM111.253 99.3901H116.293V97.3901H111.253V99.3901ZM115.341 98.6959L120.081 113.456L121.985 112.844L117.245 98.0844L115.341 98.6959ZM121.981 113.468L126.931 98.7081L125.035 98.0722L120.085 112.832L121.981 113.468ZM125.983 99.3901H130.483V97.3901H125.983V99.3901ZM129.531 98.6971L134.331 113.577L136.234 112.963L131.434 98.0831L129.531 98.6971ZM136.233 113.582L141.123 98.7023L139.223 98.0779L134.333 112.958L136.233 113.582ZM140.173 99.3901H144.823V97.3901H140.173V99.3901ZM172.796 98.3901H173.796V97.3901H172.796V98.3901ZM172.796 119.39V120.39H173.796V119.39H172.796ZM168.806 119.39L168.033 120.025L168.333 120.39H168.806V119.39ZM158.336 106.64L159.109 106.006L157.336 103.847V106.64H158.336ZM158.336 119.39V120.39H159.336V119.39H158.336ZM153.536 119.39H152.536V120.39H153.536V119.39ZM153.536 98.3901V97.3901H152.536V98.3901H153.536ZM157.556 98.3901L158.33 97.7566L158.03 97.3901H157.556V98.3901ZM167.996 111.14L167.222 111.774L168.996 113.94V111.14H167.996ZM167.996 98.3901V97.3901H166.996V98.3901H167.996ZM171.796 98.3901V119.39H173.796V98.3901H171.796ZM172.796 118.39H168.806V120.39H172.796V118.39ZM169.579 118.756L159.109 106.006L157.563 107.275L168.033 120.025L169.579 118.756ZM157.336 106.64V119.39H159.336V106.64H157.336ZM158.336 118.39H153.536V120.39H158.336V118.39ZM154.536 119.39V98.3901H152.536V119.39H154.536ZM153.536 99.3901H157.556V97.3901H153.536V99.3901ZM156.782 99.0237L167.222 111.774L168.77 110.507L158.33 97.7566L156.782 99.0237ZM168.996 111.14V98.3901H166.996V111.14H168.996ZM167.996 99.3901H172.796V97.3901H167.996V99.3901ZM183.764 98.3901V97.3901H182.764V98.3901H183.764ZM188.624 98.3901H189.624V97.3901H188.624V98.3901ZM188.624 115.43H187.624V116.43H188.624V115.43ZM199.154 115.43H200.154V114.43H199.154V115.43ZM199.154 119.39V120.39H200.154V119.39H199.154ZM183.764 119.39H182.764V120.39H183.764V119.39ZM183.764 99.3901H188.624V97.3901H183.764V99.3901ZM187.624 98.3901V115.43H189.624V98.3901H187.624ZM188.624 116.43H199.154V114.43H188.624V116.43ZM198.154 115.43V119.39H200.154V115.43H198.154ZM199.154 118.39H183.764V120.39H199.154V118.39ZM184.764 119.39V98.3901H182.764V119.39H184.764ZM211.778 118.34L211.303 119.22L211.307 119.222L211.778 118.34ZM207.668 114.47L206.807 114.979L206.811 114.985L206.815 114.991L207.668 114.47ZM207.668 103.34L206.812 102.824L206.81 102.827L207.668 103.34ZM211.778 99.4401L211.307 98.5581L211.303 98.5603L211.778 99.4401ZM227.678 103.34L226.822 103.856L226.825 103.861L227.678 103.34ZM227.678 114.47L228.532 114.991L228.535 114.986L227.678 114.47ZM223.568 118.34L224.044 119.22L223.568 118.34ZM221.048 114.77L221.537 115.643L221.544 115.639L221.55 115.635L221.048 114.77ZM223.388 112.37L222.519 111.876L222.515 111.882L222.512 111.889L223.388 112.37ZM223.388 105.41L222.512 105.891L222.515 105.898L222.519 105.904L223.388 105.41ZM221.048 103.04L220.547 103.905L220.553 103.909L220.56 103.913L221.048 103.04ZM214.328 103.04L214.817 103.913L214.824 103.909L214.83 103.905L214.328 103.04ZM211.958 105.41L211.089 104.916L211.085 104.922L211.082 104.929L211.958 105.41ZM211.958 112.37L211.082 112.851L211.085 112.858L211.089 112.864L211.958 112.37ZM214.328 114.77L213.827 115.635L213.833 115.639L213.84 115.643L214.328 114.77ZM217.688 118.75C215.657 118.75 213.851 118.314 212.249 117.458L211.307 119.222C213.225 120.247 215.36 120.75 217.688 120.75V118.75ZM212.254 117.46C210.665 116.602 209.427 115.434 208.522 113.95L206.815 114.991C207.909 116.786 209.412 118.198 211.303 119.22L212.254 117.46ZM208.529 113.962C207.647 112.466 207.198 110.784 207.198 108.89H205.198C205.198 111.116 205.73 113.154 206.807 114.979L208.529 113.962ZM207.198 108.89C207.198 106.996 207.647 105.326 208.527 103.853L206.81 102.827C205.73 104.634 205.198 106.664 205.198 108.89H207.198ZM208.525 103.856C209.431 102.353 210.668 101.177 212.254 100.32L211.303 98.5603C209.409 99.5835 207.906 101.008 206.812 102.824L208.525 103.856ZM212.249 100.322C213.851 99.4666 215.657 99.0301 217.688 99.0301V97.0301C215.36 97.0301 213.225 97.5336 211.307 98.5581L212.249 100.322ZM217.688 99.0301C219.72 99.0301 221.514 99.4667 223.093 100.32L224.044 98.5603C222.143 97.5336 220.017 97.0301 217.688 97.0301V99.0301ZM223.093 100.32C224.679 101.177 225.916 102.353 226.822 103.856L228.535 102.824C227.441 101.008 225.938 99.5835 224.044 98.5603L223.093 100.32ZM226.825 103.861C227.722 105.333 228.178 107 228.178 108.89H230.178C230.178 106.66 229.635 104.628 228.532 102.82L226.825 103.861ZM228.178 108.89C228.178 110.78 227.722 112.46 226.822 113.954L228.535 114.986C229.635 113.16 230.178 111.12 230.178 108.89H228.178ZM226.825 113.95C225.919 115.434 224.682 116.602 223.093 117.46L224.044 119.22C225.935 118.198 227.437 116.786 228.532 114.991L226.825 113.95ZM223.093 117.46C221.514 118.314 219.72 118.75 217.688 118.75V120.75C220.017 120.75 222.143 120.247 224.044 119.22L223.093 117.46ZM217.688 116.61C219.085 116.61 220.376 116.293 221.537 115.643L220.56 113.898C219.721 114.367 218.772 114.61 217.688 114.61V116.61ZM221.55 115.635C222.709 114.963 223.618 114.03 224.265 112.851L222.512 111.889C222.039 112.75 221.388 113.417 220.547 113.905L221.55 115.635ZM224.258 112.864C224.932 111.678 225.258 110.344 225.258 108.89H223.258C223.258 110.036 223.004 111.022 222.519 111.876L224.258 112.864ZM225.258 108.89C225.258 107.436 224.932 106.102 224.258 104.916L222.519 105.904C223.004 106.758 223.258 107.744 223.258 108.89H225.258ZM224.265 104.929C223.616 103.747 222.703 102.821 221.537 102.168L220.56 103.913C221.394 104.38 222.04 105.033 222.512 105.891L224.265 104.929ZM221.55 102.175C220.387 101.5 219.091 101.17 217.688 101.17V103.17C218.765 103.17 219.71 103.42 220.547 103.905L221.55 102.175ZM217.688 101.17C216.285 101.17 214.99 101.5 213.827 102.175L214.83 103.905C215.667 103.42 216.611 103.17 217.688 103.17V101.17ZM213.84 102.168C212.677 102.819 211.757 103.741 211.089 104.916L212.828 105.904C213.32 105.039 213.98 104.381 214.817 103.913L213.84 102.168ZM211.082 104.929C210.432 106.113 210.118 107.442 210.118 108.89H212.118C212.118 107.738 212.365 106.747 212.835 105.891L211.082 104.929ZM210.118 108.89C210.118 110.338 210.432 111.667 211.082 112.851L212.835 111.889C212.365 111.033 212.118 110.042 212.118 108.89H210.118ZM211.089 112.864C211.755 114.036 212.671 114.965 213.827 115.635L214.83 113.905C213.986 113.415 213.321 112.744 212.828 111.876L211.089 112.864ZM213.84 115.643C215.001 116.293 216.292 116.61 217.688 116.61V114.61C216.605 114.61 215.656 114.367 214.817 113.898L213.84 115.643ZM252.368 114.89L253.292 114.508L253.037 113.89H252.368V114.89ZM242.618 114.89V113.89H241.949L241.694 114.508L242.618 114.89ZM240.758 119.39V120.39H241.427L241.682 119.772L240.758 119.39ZM235.778 119.39L234.864 118.983L234.237 120.39H235.778V119.39ZM245.138 98.3901V97.3901H244.489L244.224 97.983L245.138 98.3901ZM249.938 98.3901L250.851 97.9819L250.586 97.3901H249.938V98.3901ZM259.328 119.39V120.39H260.87L260.241 118.982L259.328 119.39ZM254.228 119.39L253.304 119.772L253.559 120.39H254.228V119.39ZM250.838 111.2V112.2H252.334L251.762 110.817L250.838 111.2ZM247.508 103.16L248.432 102.777L247.508 100.547L246.584 102.777L247.508 103.16ZM244.178 111.2L243.254 110.817L242.681 112.2H244.178V111.2ZM252.368 113.89H242.618V115.89H252.368V113.89ZM241.694 114.508L239.834 119.008L241.682 119.772L243.542 115.272L241.694 114.508ZM240.758 118.39H235.778V120.39H240.758V118.39ZM236.691 119.797L246.051 98.7972L244.224 97.983L234.864 118.983L236.691 119.797ZM245.138 99.3901H249.938V97.3901H245.138V99.3901ZM249.025 98.7983L258.415 119.798L260.241 118.982L250.851 97.9819L249.025 98.7983ZM259.328 118.39H254.228V120.39H259.328V118.39ZM255.152 119.008L253.292 114.508L251.444 115.272L253.304 119.772L255.152 119.008ZM251.762 110.817L248.432 102.777L246.584 103.543L249.914 111.583L251.762 110.817ZM246.584 102.777L243.254 110.817L245.102 111.583L248.432 103.543L246.584 102.777ZM244.178 112.2H250.838V110.2H244.178V112.2ZM267.507 98.3901V97.3901H266.507V98.3901H267.507ZM283.077 99.7101L282.625 100.603L282.638 100.609L283.077 99.7101ZM287.157 103.37L286.302 103.889L286.307 103.897L287.157 103.37ZM287.157 114.41L286.307 113.883L286.302 113.891L287.157 114.41ZM283.077 118.1L283.52 118.997L283.524 118.995L283.077 118.1ZM267.507 119.39H266.507V120.39H267.507V119.39ZM281.817 113.66L282.5 114.39L282.5 114.39L281.817 113.66ZM281.817 104.15L281.127 104.875L281.133 104.88L281.139 104.886L281.817 104.15ZM272.367 102.38V101.38H271.367V102.38H272.367ZM272.367 115.4H271.367V116.4H272.367V115.4ZM267.507 99.3901H277.047V97.3901H267.507V99.3901ZM277.047 99.3901C279.196 99.3901 281.047 99.8043 282.625 100.603L283.528 98.8178C281.626 97.8559 279.457 97.3901 277.047 97.3901V99.3901ZM282.638 100.609C284.236 101.39 285.447 102.483 286.302 103.889L288.011 102.851C286.946 101.097 285.437 99.7504 283.516 98.8117L282.638 100.609ZM286.307 103.897C287.176 105.299 287.627 106.952 287.627 108.89H289.627C289.627 106.629 289.097 104.601 288.006 102.843L286.307 103.897ZM287.627 108.89C287.627 110.829 287.176 112.481 286.307 113.883L288.006 114.937C289.097 113.179 289.627 111.152 289.627 108.89H287.627ZM286.302 113.891C285.446 115.299 284.232 116.404 282.629 117.206L283.524 118.995C285.441 118.036 286.947 116.681 288.011 114.929L286.302 113.891ZM282.634 117.204C281.053 117.985 279.2 118.39 277.047 118.39V120.39C279.454 120.39 281.62 119.936 283.52 118.997L282.634 117.204ZM277.047 118.39H267.507V120.39H277.047V118.39ZM268.507 119.39V98.3901H266.507V119.39H268.507ZM276.807 116.4C279.097 116.4 281.033 115.762 282.5 114.39L281.133 112.93C280.12 113.878 278.716 114.4 276.807 114.4V116.4ZM282.5 114.39C283.995 112.991 284.707 111.119 284.707 108.89H282.707C282.707 110.662 282.159 111.97 281.133 112.93L282.5 114.39ZM284.707 108.89C284.707 106.662 283.995 104.796 282.494 103.414L281.139 104.886C282.159 105.824 282.707 107.118 282.707 108.89H284.707ZM282.506 103.426C281.04 102.031 279.102 101.38 276.807 101.38V103.38C278.711 103.38 280.113 103.91 281.127 104.875L282.506 103.426ZM276.807 101.38H272.367V103.38H276.807V101.38ZM271.367 102.38V115.4H273.367V102.38H271.367ZM272.367 116.4H276.807V114.4H272.367V116.4Z" fill="#CC46A6"/>
</g>
<defs>
<filter id="filter0_d" x="0.5" y="73.3901" width="338" height="78" filterUnits="userSpaceOnUse" color-interpolation-filters="sRGB">
<feFlood flood-opacity="0" result="BackgroundImageFix"/>
<feColorMatrix in="SourceAlpha" type="matrix" values="0 0 0 0 0 0 0 0 0 0 0 0 0 0 0 0 0 0 127 0"/>
<feOffset dy="4"/>
<feGaussianBlur stdDeviation="2"/>
<feColorMatrix type="matrix" values="0 0 0 0 0 0 0 0 0 0 0 0 0 0 0 0 0 0 0.25 0"/>
<feBlend mode="normal" in2="BackgroundImageFix" result="effect1_dropShadow"/>
<feBlend mode="normal" in="SourceGraphic" in2="effect1_dropShadow" result="shape"/>
</filter>
<filter id="filter1_d" x="47.6882" y="98.0303" width="244.938" height="29.72" filterUnits="userSpaceOnUse" color-interpolation-filters="sRGB">
<feFlood flood-opacity="0" result="BackgroundImageFix"/>
<feColorMatrix in="SourceAlpha" type="matrix" values="0 0 0 0 0 0 0 0 0 0 0 0 0 0 0 0 0 0 127 0"/>
<feOffset dy="4"/>
<feGaussianBlur stdDeviation="2"/>
<feColorMatrix type="matrix" values="0 0 0 0 0 0 0 0 0 0 0 0 0 0 0 0 0 0 0.25 0"/>
<feBlend mode="normal" in2="BackgroundImageFix" result="effect1_dropShadow"/>
<feBlend mode="normal" in="SourceGraphic" in2="effect1_dropShadow" result="shape"/>
</filter>
</defs>
</svg>
