<svg width="183" height="56" viewBox="0 0 183 56" fill="none" xmlns="http://www.w3.org/2000/svg">
<rect x="2" y="1.5" width="179" height="53" rx="26.5" stroke="#CC46A6" stroke-width="3"/>
<path d="M29.6085 21H35.7285C37.2218 21 38.5485 21.2933 39.7085 21.88C40.8685 22.4533 41.7685 23.2733 42.4085 24.34C43.0485 25.3933 43.3685 26.6133 43.3685 28C43.3685 29.3867 43.0485 30.6133 42.4085 31.68C41.7685 32.7333 40.8685 33.5533 39.7085 34.14C38.5485 34.7133 37.2218 35 35.7285 35H29.6085V21ZM35.6085 32.8C36.6352 32.8 37.5352 32.6067 38.3085 32.22C39.0952 31.82 39.6952 31.26 40.1085 30.54C40.5352 29.8067 40.7485 28.96 40.7485 28C40.7485 27.04 40.5352 26.2 40.1085 25.48C39.6952 24.7467 39.0952 24.1867 38.3085 23.8C37.5352 23.4 36.6352 23.2 35.6085 23.2H32.2085V32.8H35.6085ZM52.672 35.2C51.2453 35.2 49.9586 34.8933 48.812 34.28C47.6653 33.6533 46.7653 32.7933 46.112 31.7C45.4586 30.5933 45.132 29.36 45.132 28C45.132 26.64 45.4586 25.4133 46.112 24.32C46.7653 23.2133 47.6653 22.3533 48.812 21.74C49.9586 21.1133 51.2453 20.8 52.672 20.8C54.0986 20.8 55.3853 21.1133 56.532 21.74C57.6786 22.3533 58.5786 23.2067 59.232 24.3C59.8853 25.3933 60.212 26.6267 60.212 28C60.212 29.3733 59.8853 30.6067 59.232 31.7C58.5786 32.7933 57.6786 33.6533 56.532 34.28C55.3853 34.8933 54.0986 35.2 52.672 35.2ZM52.672 32.92C53.6053 32.92 54.4453 32.7133 55.192 32.3C55.9386 31.8733 56.5253 31.2867 56.952 30.54C57.3786 29.78 57.592 28.9333 57.592 28C57.592 27.0667 57.3786 26.2267 56.952 25.48C56.5253 24.72 55.9386 24.1333 55.192 23.72C54.4453 23.2933 53.6053 23.08 52.672 23.08C51.7386 23.08 50.8986 23.2933 50.152 23.72C49.4053 24.1333 48.8186 24.72 48.392 25.48C47.9653 26.2267 47.752 27.0667 47.752 28C47.752 28.9333 47.9653 29.78 48.392 30.54C48.8186 31.2867 49.4053 31.8733 50.152 32.3C50.8986 32.7133 51.7386 32.92 52.672 32.92ZM82.9787 21L78.3387 35H75.5787L72.1187 24.64L68.5987 35H65.8187L61.1787 21H63.8787L67.3587 31.64L70.9787 21H73.3787L76.9187 31.7L80.4987 21H82.9787ZM97.5368 21V35H95.3968L87.6768 25.52V35H85.0968V21H87.2368L94.9568 30.48V21H97.5368ZM101.288 21H103.888V32.8H111.208V35H101.288V21ZM119.547 35.2C118.12 35.2 116.834 34.8933 115.687 34.28C114.54 33.6533 113.64 32.7933 112.987 31.7C112.334 30.5933 112.007 29.36 112.007 28C112.007 26.64 112.334 25.4133 112.987 24.32C113.64 23.2133 114.54 22.3533 115.687 21.74C116.834 21.1133 118.12 20.8 119.547 20.8C120.974 20.8 122.26 21.1133 123.407 21.74C124.554 22.3533 125.454 23.2067 126.107 24.3C126.76 25.3933 127.087 26.6267 127.087 28C127.087 29.3733 126.76 30.6067 126.107 31.7C125.454 32.7933 124.554 33.6533 123.407 34.28C122.26 34.8933 120.974 35.2 119.547 35.2ZM119.547 32.92C120.48 32.92 121.32 32.7133 122.067 32.3C122.814 31.8733 123.4 31.2867 123.827 30.54C124.254 29.78 124.467 28.9333 124.467 28C124.467 27.0667 124.254 26.2267 123.827 25.48C123.4 24.72 122.814 24.1333 122.067 23.72C121.32 23.2933 120.48 23.08 119.547 23.08C118.614 23.08 117.774 23.2933 117.027 23.72C116.28 24.1333 115.694 24.72 115.267 25.48C114.84 26.2267 114.627 27.0667 114.627 28C114.627 28.9333 114.84 29.78 115.267 30.54C115.694 31.2867 116.28 31.8733 117.027 32.3C117.774 32.7133 118.614 32.92 119.547 32.92ZM138.728 31.76H131.728L130.348 35H127.668L133.968 21H136.528L142.848 35H140.128L138.728 31.76ZM137.868 29.72L135.228 23.6L132.608 29.72H137.868ZM144.628 21H150.748C152.241 21 153.568 21.2933 154.728 21.88C155.888 22.4533 156.788 23.2733 157.428 24.34C158.068 25.3933 158.388 26.6133 158.388 28C158.388 29.3867 158.068 30.6133 157.428 31.68C156.788 32.7333 155.888 33.5533 154.728 34.14C153.568 34.7133 152.241 35 150.748 35H144.628V21ZM150.628 32.8C151.655 32.8 152.555 32.6067 153.328 32.22C154.115 31.82 154.715 31.26 155.128 30.54C155.555 29.8067 155.768 28.96 155.768 28C155.768 27.04 155.555 26.2 155.128 25.48C154.715 24.7467 154.115 24.1867 153.328 23.8C152.555 23.4 151.655 23.2 150.628 23.2H147.228V32.8H150.628Z" fill="white"/>
<path d="M29.6085 21V20H28.6085V21H29.6085ZM39.7085 21.88L39.2572 22.7724L39.2654 22.7765L39.7085 21.88ZM42.4085 24.34L41.551 24.8545L41.5539 24.8593L42.4085 24.34ZM42.4085 31.68L43.2631 32.1993L43.266 32.1945L42.4085 31.68ZM39.7085 34.14L40.1516 35.0365L40.1598 35.0324L39.7085 34.14ZM29.6085 35H28.6085V36H29.6085V35ZM38.3085 32.22L38.7557 33.1144L38.7618 33.1114L38.3085 32.22ZM40.1085 30.54L39.2442 30.0371L39.2413 30.0421L40.1085 30.54ZM40.1085 25.48L39.2374 25.971L39.2427 25.9805L39.2482 25.9898L40.1085 25.48ZM38.3085 23.8L37.8491 24.6882L37.8582 24.6929L37.8674 24.6974L38.3085 23.8ZM32.2085 23.2V22.2H31.2085V23.2H32.2085ZM32.2085 32.8H31.2085V33.8H32.2085V32.8ZM29.6085 22H35.7285V20H29.6085V22ZM35.7285 22C37.0885 22 38.2566 22.2663 39.2572 22.7724L40.1598 20.9876C38.8404 20.3203 37.3552 20 35.7285 20V22ZM39.2654 22.7765C40.2608 23.2684 41.0138 23.9591 41.551 24.8545L43.266 23.8255C42.5233 22.5876 41.4762 21.6382 40.1516 20.9835L39.2654 22.7765ZM41.5539 24.8593C42.0873 25.7372 42.3685 26.773 42.3685 28H44.3685C44.3685 26.4537 44.0097 25.0495 43.2631 23.8207L41.5539 24.8593ZM42.3685 28C42.3685 29.2268 42.0874 30.2716 41.551 31.1655L43.266 32.1945C44.0097 30.9551 44.3685 29.5466 44.3685 28H42.3685ZM41.5539 31.1607C41.0163 32.0456 40.2601 32.7404 39.2572 33.2476L40.1598 35.0324C41.4769 34.3662 42.5208 33.4211 43.2631 32.1993L41.5539 31.1607ZM39.2654 33.2435C38.263 33.739 37.0919 34 35.7285 34V36C37.3518 36 38.834 35.6877 40.1516 35.0365L39.2654 33.2435ZM35.7285 34H29.6085V36H35.7285V34ZM30.6085 35V21H28.6085V35H30.6085ZM35.6085 33.8C36.7615 33.8 37.8198 33.5824 38.7557 33.1144L37.8613 31.3256C37.2505 31.631 36.5088 31.8 35.6085 31.8V33.8ZM38.7618 33.1114C39.7103 32.6291 40.4594 31.9373 40.9758 31.0379L39.2413 30.0421C38.9309 30.5827 38.4801 31.0109 37.8553 31.3286L38.7618 33.1114ZM40.9729 31.0429C41.4996 30.1376 41.7485 29.113 41.7485 28H39.7485C39.7485 28.807 39.5708 29.4757 39.2442 30.0371L40.9729 31.0429ZM41.7485 28C41.7485 26.8874 41.4997 25.8661 40.9688 24.9702L39.2482 25.9898C39.5707 26.5339 39.7485 27.1926 39.7485 28H41.7485ZM40.9797 24.989C40.463 24.0724 39.7094 23.3743 38.7496 22.9026L37.8674 24.6974C38.4809 24.999 38.9273 25.421 39.2374 25.971L40.9797 24.989ZM38.7679 22.9118C37.8292 22.4262 36.7665 22.2 35.6085 22.2V24.2C36.5039 24.2 37.2411 24.3738 37.8491 24.6882L38.7679 22.9118ZM35.6085 22.2H32.2085V24.2H35.6085V22.2ZM31.2085 23.2V32.8H33.2085V23.2H31.2085ZM32.2085 33.8H35.6085V31.8H32.2085V33.8ZM48.812 34.28L48.3324 35.1575L48.3403 35.1618L48.812 34.28ZM46.112 31.7L45.2508 32.2084L45.2535 32.213L46.112 31.7ZM46.112 24.32L46.9704 24.833L46.9731 24.8284L46.112 24.32ZM48.812 21.74L49.2836 22.6218L49.2915 22.6175L48.812 21.74ZM56.532 21.74L56.0524 22.6175L56.0603 22.6218L56.532 21.74ZM59.232 24.3L58.3735 24.813H58.3735L59.232 24.3ZM59.232 31.7L58.3735 31.187L58.3735 31.187L59.232 31.7ZM56.532 34.28L57.0036 35.1618L57.0115 35.1575L56.532 34.28ZM55.192 32.3L55.6763 33.175L55.6881 33.1682L55.192 32.3ZM56.952 30.54L57.8202 31.0362L57.8239 31.0295L56.952 30.54ZM56.952 25.48L56.0799 25.9695L56.0837 25.9761L56.952 25.48ZM55.192 23.72L54.6958 24.5883L54.7076 24.5949L55.192 23.72ZM50.152 23.72L50.6363 24.595L50.6481 24.5882L50.152 23.72ZM48.392 25.48L49.2602 25.9762L49.2639 25.9695L48.392 25.48ZM48.392 30.54L47.5199 31.0295L47.5237 31.0361L48.392 30.54ZM50.152 32.3L49.6558 33.1683L49.6676 33.1749L50.152 32.3ZM52.672 34.2C51.3935 34.2 50.2714 33.9266 49.2836 33.3982L48.3403 35.1618C49.6458 35.8601 51.0971 36.2 52.672 36.2V34.2ZM49.2915 33.4025C48.2971 32.859 47.5297 32.1231 46.9704 31.187L45.2535 32.213C46.0008 33.4635 47.0334 34.4476 48.3324 35.1575L49.2915 33.4025ZM46.9731 31.1916C46.416 30.248 46.132 29.192 46.132 28H44.132C44.132 29.528 44.5012 30.9386 45.2508 32.2084L46.9731 31.1916ZM46.132 28C46.132 26.8079 46.416 25.7607 46.9704 24.833L45.2535 23.807C44.5012 25.066 44.132 26.4721 44.132 28H46.132ZM46.9731 24.8284C47.5321 23.8815 48.2965 23.1498 49.2836 22.6218L48.3403 20.8582C47.0341 21.5569 45.9985 22.5452 45.2508 23.8116L46.9731 24.8284ZM49.2915 22.6175C50.2779 22.0784 51.3971 21.8 52.672 21.8V19.8C51.0935 19.8 49.6394 20.1482 48.3324 20.8625L49.2915 22.6175ZM52.672 21.8C53.9468 21.8 55.066 22.0784 56.0524 22.6175L57.0115 20.8625C55.7046 20.1482 54.2505 19.8 52.672 19.8V21.8ZM56.0603 22.6218C57.0505 23.1514 57.8153 23.8788 58.3735 24.813L60.0904 23.787C59.3419 22.5346 58.3067 21.5552 57.0036 20.8582L56.0603 22.6218ZM58.3735 24.813C58.927 25.7391 59.212 26.7927 59.212 28H61.212C61.212 26.4607 60.8436 25.0475 60.0904 23.787L58.3735 24.813ZM59.212 28C59.212 29.2073 58.927 30.2609 58.3735 31.187L60.0904 32.213C60.8436 30.9525 61.212 29.5393 61.212 28H59.212ZM58.3735 31.187C57.8142 32.1231 57.0468 32.859 56.0524 33.4025L57.0115 35.1575C58.3105 34.4476 59.3431 33.4635 60.0904 32.213L58.3735 31.187ZM56.0603 33.3982C55.0725 33.9266 53.9504 34.2 52.672 34.2V36.2C54.2468 36.2 55.6981 35.8601 57.0036 35.1618L56.0603 33.3982ZM52.672 33.92C53.7585 33.92 54.7678 33.6778 55.6763 33.1749L54.7076 31.4251C54.1228 31.7489 53.4521 31.92 52.672 31.92V33.92ZM55.6881 33.1682C56.5898 32.653 57.3049 31.9378 57.8202 31.0361L56.0837 30.0439C55.7456 30.6355 55.2875 31.0937 54.6958 31.4318L55.6881 33.1682ZM57.8239 31.0295C58.3405 30.1095 58.592 29.0922 58.592 28H56.592C56.592 28.7744 56.4168 29.4505 56.08 30.0505L57.8239 31.0295ZM58.592 28C58.592 26.9079 58.3405 25.8944 57.8202 24.9839L56.0837 25.9761C56.4168 26.559 56.592 27.2254 56.592 28H58.592ZM57.8239 24.9905C57.3084 24.0721 56.589 23.3504 55.6763 22.8451L54.7076 24.5949C55.2882 24.9163 55.7422 25.3679 56.08 25.9695L57.8239 24.9905ZM55.6881 22.8518C54.7776 22.3315 53.764 22.08 52.672 22.08V24.08C53.4466 24.08 54.113 24.2552 54.6958 24.5882L55.6881 22.8518ZM52.672 22.08C51.5799 22.08 50.5663 22.3315 49.6558 22.8518L50.6481 24.5882C51.2309 24.2552 51.8974 24.08 52.672 24.08V22.08ZM49.6676 22.8451C48.7549 23.3504 48.0355 24.0721 47.52 24.9905L49.2639 25.9695C49.6017 25.3679 50.0557 24.9163 50.6363 24.5949L49.6676 22.8451ZM47.5237 24.9839C47.0034 25.8944 46.752 26.9079 46.752 28H48.752C48.752 27.2254 48.9272 26.559 49.2602 25.9761L47.5237 24.9839ZM46.752 28C46.752 29.0922 47.0034 30.1095 47.52 31.0295L49.2639 30.0505C48.9271 29.4505 48.752 28.7744 48.752 28H46.752ZM47.5237 31.0361C48.039 31.9378 48.7541 32.653 49.6558 33.1682L50.6481 31.4318C50.0565 31.0937 49.5983 30.6355 49.2602 30.0439L47.5237 31.0361ZM49.6676 33.1749C50.5761 33.6778 51.5855 33.92 52.672 33.92V31.92C51.8918 31.92 51.2211 31.7489 50.6363 31.4251L49.6676 33.1749ZM82.9787 21L83.9279 21.3146L84.3636 20H82.9787V21ZM78.3387 35V36H79.0607L79.2879 35.3146L78.3387 35ZM75.5787 35L74.6302 35.3168L74.8584 36H75.5787V35ZM72.1187 24.64L73.0672 24.3232L72.1268 21.5076L71.1718 24.3183L72.1187 24.64ZM68.5987 35V36H69.315L69.5455 35.3217L68.5987 35ZM65.8187 35L64.8694 35.3146L65.0966 36H65.8187V35ZM61.1787 21V20H59.7938L60.2294 21.3146L61.1787 21ZM63.8787 21L64.8291 20.6891L64.6037 20H63.8787V21ZM67.3587 31.64L66.4082 31.9509L67.34 34.7997L68.3054 31.9621L67.3587 31.64ZM70.9787 21V20H70.2626L70.032 20.6779L70.9787 21ZM73.3787 21L74.3281 20.6859L74.1011 20H73.3787V21ZM76.9187 31.7L75.9693 32.0141L76.9133 34.8676L77.867 32.0173L76.9187 31.7ZM80.4987 21V20H79.7788L79.5503 20.6827L80.4987 21ZM82.0294 20.6854L77.3895 34.6854L79.2879 35.3146L83.9279 21.3146L82.0294 20.6854ZM78.3387 34H75.5787V36H78.3387V34ZM76.5272 34.6832L73.0672 24.3232L71.1702 24.9568L74.6302 35.3168L76.5272 34.6832ZM71.1718 24.3183L67.6518 34.6783L69.5455 35.3217L73.0655 24.9617L71.1718 24.3183ZM68.5987 34H65.8187V36H68.5987V34ZM66.7679 34.6854L62.1279 20.6854L60.2294 21.3146L64.8694 35.3146L66.7679 34.6854ZM61.1787 22H63.8787V20H61.1787V22ZM62.9282 21.3109L66.4082 31.9509L68.3091 31.3291L64.8291 20.6891L62.9282 21.3109ZM68.3054 31.9621L71.9254 21.3221L70.032 20.6779L66.412 31.3179L68.3054 31.9621ZM70.9787 22H73.3787V20H70.9787V22ZM72.4293 21.3141L75.9693 32.0141L77.8681 31.3859L74.3281 20.6859L72.4293 21.3141ZM77.867 32.0173L81.447 21.3173L79.5503 20.6827L75.9703 31.3827L77.867 32.0173ZM80.4987 22H82.9787V20H80.4987V22ZM97.5368 21H98.5368V20H97.5368V21ZM97.5368 35V36H98.5368V35H97.5368ZM95.3968 35L94.6214 35.6315L94.9215 36H95.3968V35ZM87.6768 25.52L88.4522 24.8885L86.6768 22.7084V25.52H87.6768ZM87.6768 35V36H88.6768V35H87.6768ZM85.0968 35H84.0968V36H85.0968V35ZM85.0968 21V20H84.0968V21H85.0968ZM87.2368 21L88.0122 20.3685L87.7121 20H87.2368V21ZM94.9568 30.48L94.1814 31.1115L95.9568 33.2916V30.48H94.9568ZM94.9568 21V20H93.9568V21H94.9568ZM96.5368 21V35H98.5368V21H96.5368ZM97.5368 34H95.3968V36H97.5368V34ZM96.1722 34.3685L88.4522 24.8885L86.9014 26.1515L94.6214 35.6315L96.1722 34.3685ZM86.6768 25.52V35H88.6768V25.52H86.6768ZM87.6768 34H85.0968V36H87.6768V34ZM86.0968 35V21H84.0968V35H86.0968ZM85.0968 22H87.2368V20H85.0968V22ZM86.4614 21.6315L94.1814 31.1115L95.7322 29.8485L88.0122 20.3685L86.4614 21.6315ZM95.9568 30.48V21H93.9568V30.48H95.9568ZM94.9568 22H97.5368V20H94.9568V22ZM101.288 21V20H100.288V21H101.288ZM103.888 21H104.888V20H103.888V21ZM103.888 32.8H102.888V33.8H103.888V32.8ZM111.208 32.8H112.208V31.8H111.208V32.8ZM111.208 35V36H112.208V35H111.208ZM101.288 35H100.288V36H101.288V35ZM101.288 22H103.888V20H101.288V22ZM102.888 21V32.8H104.888V21H102.888ZM103.888 33.8H111.208V31.8H103.888V33.8ZM110.208 32.8V35H112.208V32.8H110.208ZM111.208 34H101.288V36H111.208V34ZM102.288 35V21H100.288V35H102.288ZM115.687 34.28L115.207 35.1575L115.215 35.1618L115.687 34.28ZM112.987 31.7L112.126 32.2084L112.129 32.213L112.987 31.7ZM112.987 24.32L113.845 24.833L113.848 24.8284L112.987 24.32ZM115.687 21.74L116.159 22.6218L116.167 22.6175L115.687 21.74ZM123.407 21.74L122.927 22.6175L122.935 22.6218L123.407 21.74ZM126.107 24.3L125.249 24.813L126.107 24.3ZM126.107 31.7L125.249 31.187V31.187L126.107 31.7ZM123.407 34.28L123.879 35.1618L123.887 35.1575L123.407 34.28ZM122.067 32.3L122.551 33.175L122.563 33.1682L122.067 32.3ZM123.827 30.54L124.695 31.0362L124.699 31.0295L123.827 30.54ZM123.827 25.48L122.955 25.9695L122.959 25.9761L123.827 25.48ZM122.067 23.72L121.571 24.5883L121.583 24.5949L122.067 23.72ZM117.027 23.72L117.511 24.595L117.523 24.5882L117.027 23.72ZM115.267 25.48L116.135 25.9762L116.139 25.9695L115.267 25.48ZM115.267 30.54L114.395 31.0295L114.399 31.0361L115.267 30.54ZM117.027 32.3L116.531 33.1683L116.543 33.1749L117.027 32.3ZM119.547 34.2C118.269 34.2 117.146 33.9266 116.159 33.3982L115.215 35.1618C116.521 35.8601 117.972 36.2 119.547 36.2V34.2ZM116.167 33.4025C115.172 32.859 114.405 32.1231 113.845 31.187L112.129 32.213C112.876 33.4635 113.908 34.4476 115.207 35.1575L116.167 33.4025ZM113.848 31.1916C113.291 30.248 113.007 29.192 113.007 28H111.007C111.007 29.528 111.376 30.9386 112.126 32.2084L113.848 31.1916ZM113.007 28C113.007 26.8079 113.291 25.7607 113.845 24.833L112.129 23.807C111.376 25.066 111.007 26.4721 111.007 28H113.007ZM113.848 24.8284C114.407 23.8815 115.172 23.1498 116.159 22.6218L115.215 20.8582C113.909 21.5569 112.873 22.5452 112.126 23.8116L113.848 24.8284ZM116.167 22.6175C117.153 22.0784 118.272 21.8 119.547 21.8V19.8C117.968 19.8 116.514 20.1482 115.207 20.8625L116.167 22.6175ZM119.547 21.8C120.822 21.8 121.941 22.0784 122.927 22.6175L123.887 20.8625C122.58 20.1482 121.125 19.8 119.547 19.8V21.8ZM122.935 22.6218C123.926 23.1514 124.69 23.8788 125.249 24.813L126.965 23.787C126.217 22.5346 125.182 21.5552 123.879 20.8582L122.935 22.6218ZM125.249 24.813C125.802 25.7391 126.087 26.7927 126.087 28H128.087C128.087 26.4607 127.719 25.0475 126.965 23.787L125.249 24.813ZM126.087 28C126.087 29.2073 125.802 30.2609 125.249 31.187L126.965 32.213C127.719 30.9525 128.087 29.5393 128.087 28H126.087ZM125.249 31.187C124.689 32.1231 123.922 32.859 122.927 33.4025L123.887 35.1575C125.185 34.4476 126.218 33.4635 126.965 32.213L125.249 31.187ZM122.935 33.3982C121.947 33.9266 120.825 34.2 119.547 34.2V36.2C121.122 36.2 122.573 35.8601 123.879 35.1618L122.935 33.3982ZM119.547 33.92C120.633 33.92 121.643 33.6778 122.551 33.1749L121.583 31.4251C120.998 31.7489 120.327 31.92 119.547 31.92V33.92ZM122.563 33.1682C123.465 32.653 124.18 31.9378 124.695 31.0361L122.959 30.0439C122.621 30.6355 122.162 31.0937 121.571 31.4318L122.563 33.1682ZM124.699 31.0295C125.215 30.1095 125.467 29.0922 125.467 28H123.467C123.467 28.7744 123.292 29.4505 122.955 30.0505L124.699 31.0295ZM125.467 28C125.467 26.9079 125.215 25.8944 124.695 24.9839L122.959 25.9761C123.292 26.559 123.467 27.2254 123.467 28H125.467ZM124.699 24.9905C124.183 24.0721 123.464 23.3504 122.551 22.8451L121.583 24.5949C122.163 24.9163 122.617 25.3679 122.955 25.9695L124.699 24.9905ZM122.563 22.8518C121.653 22.3315 120.639 22.08 119.547 22.08V24.08C120.322 24.08 120.988 24.2552 121.571 24.5882L122.563 22.8518ZM119.547 22.08C118.455 22.08 117.441 22.3315 116.531 22.8518L117.523 24.5882C118.106 24.2552 118.772 24.08 119.547 24.08V22.08ZM116.543 22.8451C115.63 23.3504 114.911 24.0721 114.395 24.9905L116.139 25.9695C116.477 25.3679 116.931 24.9163 117.511 24.5949L116.543 22.8451ZM114.399 24.9839C113.878 25.8944 113.627 26.9079 113.627 28H115.627C115.627 27.2254 115.802 26.559 116.135 25.9761L114.399 24.9839ZM113.627 28C113.627 29.0922 113.878 30.1095 114.395 31.0295L116.139 30.0505C115.802 29.4505 115.627 28.7744 115.627 28H113.627ZM114.399 31.0361C114.914 31.9378 115.629 32.653 116.531 33.1682L117.523 31.4318C116.931 31.0937 116.473 30.6355 116.135 30.0439L114.399 31.0361ZM116.543 33.1749C117.451 33.6778 118.46 33.92 119.547 33.92V31.92C118.767 31.92 118.096 31.7489 117.511 31.4251L116.543 33.1749ZM138.728 31.76L139.646 31.3633L139.385 30.76H138.728V31.76ZM131.728 31.76V30.76H131.067L130.808 31.3681L131.728 31.76ZM130.348 35V36H131.009L131.268 35.3919L130.348 35ZM127.668 35L126.756 34.5896L126.121 36H127.668V35ZM133.968 21V20H133.321L133.056 20.5896L133.968 21ZM136.528 21L137.439 20.5886L137.173 20H136.528V21ZM142.848 35V36H144.396L143.759 34.5886L142.848 35ZM140.128 35L139.21 35.3967L139.47 36H140.128V35ZM137.868 29.72V30.72H139.388L138.786 29.3239L137.868 29.72ZM135.228 23.6L136.146 23.2039L135.224 21.0672L134.308 23.2064L135.228 23.6ZM132.608 29.72L131.688 29.3264L131.092 30.72H132.608V29.72ZM138.728 30.76H131.728V32.76H138.728V30.76ZM130.808 31.3681L129.428 34.6081L131.268 35.3919L132.648 32.1519L130.808 31.3681ZM130.348 34H127.668V36H130.348V34ZM128.579 35.4104L134.88 21.4104L133.056 20.5896L126.756 34.5896L128.579 35.4104ZM133.968 22H136.528V20H133.968V22ZM135.616 21.4114L141.936 35.4114L143.759 34.5886L137.439 20.5886L135.616 21.4114ZM142.848 34H140.128V36H142.848V34ZM141.046 34.6033L139.646 31.3633L137.81 32.1567L139.21 35.3967L141.046 34.6033ZM138.786 29.3239L136.146 23.2039L134.309 23.9961L136.949 30.1161L138.786 29.3239ZM134.308 23.2064L131.688 29.3264L133.527 30.1136L136.147 23.9936L134.308 23.2064ZM132.608 30.72H137.868V28.72H132.608V30.72ZM144.628 21V20H143.628V21H144.628ZM154.728 21.88L154.277 22.7724L154.285 22.7765L154.728 21.88ZM157.428 24.34L156.571 24.8545L156.573 24.8593L157.428 24.34ZM157.428 31.68L158.283 32.1993L158.286 32.1945L157.428 31.68ZM154.728 34.14L155.171 35.0365L155.179 35.0324L154.728 34.14ZM144.628 35H143.628V36H144.628V35ZM153.328 32.22L153.775 33.1144L153.781 33.1114L153.328 32.22ZM155.128 30.54L154.264 30.0371L154.261 30.0421L155.128 30.54ZM155.128 25.48L154.257 25.971L154.262 25.9805L154.268 25.9898L155.128 25.48ZM153.328 23.8L152.869 24.6882L152.878 24.6929L152.887 24.6974L153.328 23.8ZM147.228 23.2V22.2H146.228V23.2H147.228ZM147.228 32.8H146.228V33.8H147.228V32.8ZM144.628 22H150.748V20H144.628V22ZM150.748 22C152.108 22 153.276 22.2663 154.277 22.7724L155.179 20.9876C153.86 20.3203 152.375 20 150.748 20V22ZM154.285 22.7765C155.28 23.2684 156.033 23.9591 156.571 24.8545L158.286 23.8255C157.543 22.5876 156.496 21.6382 155.171 20.9835L154.285 22.7765ZM156.573 24.8593C157.107 25.7372 157.388 26.773 157.388 28H159.388C159.388 26.4537 159.029 25.0495 158.283 23.8207L156.573 24.8593ZM157.388 28C157.388 29.2268 157.107 30.2716 156.571 31.1655L158.286 32.1945C159.029 30.9551 159.388 29.5466 159.388 28H157.388ZM156.573 31.1607C156.036 32.0456 155.28 32.7404 154.277 33.2476L155.179 35.0324C156.496 34.3662 157.54 33.4211 158.283 32.1993L156.573 31.1607ZM154.285 33.2435C153.283 33.739 152.111 34 150.748 34V36C152.371 36 153.854 35.6877 155.171 35.0365L154.285 33.2435ZM150.748 34H144.628V36H150.748V34ZM145.628 35V21H143.628V35H145.628ZM150.628 33.8C151.781 33.8 152.839 33.5824 153.775 33.1144L152.881 31.3256C152.27 31.631 151.528 31.8 150.628 31.8V33.8ZM153.781 33.1114C154.73 32.6291 155.479 31.9373 155.995 31.0379L154.261 30.0421C153.95 30.5827 153.5 31.0109 152.875 31.3286L153.781 33.1114ZM155.992 31.0429C156.519 30.1376 156.768 29.113 156.768 28H154.768C154.768 28.807 154.59 29.4757 154.264 30.0371L155.992 31.0429ZM156.768 28C156.768 26.8874 156.519 25.8661 155.988 24.9702L154.268 25.9898C154.59 26.5339 154.768 27.1926 154.768 28H156.768ZM155.999 24.989C155.483 24.0724 154.729 23.3743 153.769 22.9026L152.887 24.6974C153.5 24.999 153.947 25.421 154.257 25.971L155.999 24.989ZM153.787 22.9118C152.849 22.4262 151.786 22.2 150.628 22.2V24.2C151.523 24.2 152.261 24.3738 152.869 24.6882L153.787 22.9118ZM150.628 22.2H147.228V24.2H150.628V22.2ZM146.228 23.2V32.8H148.228V23.2H146.228ZM147.228 33.8H150.628V31.8H147.228V33.8Z" fill="#CC46A6"/>
</svg>
