<svg width="231" height="231" viewBox="0 0 231 231" fill="none" xmlns="http://www.w3.org/2000/svg">
<path d="M167 68.5L46.5 114.5C42.5 116.027 43.1667 119.803 44 121.5L77.5 131.5L148 87.5C150.8 86.7 151.167 88.5 151 89.5L94.5 140.5L92.5 173.5L114 153.5C119.833 157.667 133.2 167.7 140 174.5C146.8 181.3 152.167 177.333 154 174.5L173.5 75.5C175.5 68.7 172 66.5 167 68.5Z" fill="#FFFEFE"/>
<path d="M115.5 230.5C179.013 230.5 230.5 179.013 230.5 115.5C230.5 51.9873 179.013 0.5 115.5 0.5C51.9873 0.5 0.5 51.9873 0.5 115.5C0.5 179.013 51.9873 230.5 115.5 230.5Z" stroke="#FFFEFE"/>
</svg>
