<svg width="321" height="51" viewBox="0 0 321 51" fill="none" xmlns="http://www.w3.org/2000/svg">
<rect x="0.739258" y="0.625" width="320" height="50" rx="5" fill="#180923"/>
<path d="M99.95 34.825C98.2 34.825 96.6167 34.4417 95.2 33.675C93.8 32.8917 92.7 31.825 91.9 30.475C91.1 29.1083 90.7 27.575 90.7 25.875C90.7 24.175 91.1 22.65 91.9 21.3C92.7 19.9333 93.8083 18.8667 95.225 18.1C96.6417 17.3167 98.225 16.925 99.975 16.925C101.342 16.925 102.592 17.1583 103.725 17.625C104.858 18.075 105.825 18.75 106.625 19.65L105 21.225C103.683 19.8417 102.042 19.15 100.075 19.15C98.775 19.15 97.6 19.4417 96.55 20.025C95.5 20.6083 94.675 21.4167 94.075 22.45C93.4917 23.4667 93.2 24.6083 93.2 25.875C93.2 27.1417 93.4917 28.2917 94.075 29.325C94.675 30.3417 95.5 31.1417 96.55 31.725C97.6 32.3083 98.775 32.6 100.075 32.6C102.025 32.6 103.667 31.9 105 30.5L106.625 32.075C105.825 32.975 104.85 33.6583 103.7 34.125C102.567 34.5917 101.317 34.825 99.95 34.825ZM117.725 34.825C115.959 34.825 114.367 34.4417 112.95 33.675C111.534 32.8917 110.417 31.8167 109.6 30.45C108.8 29.0833 108.4 27.5583 108.4 25.875C108.4 24.1917 108.8 22.6667 109.6 21.3C110.417 19.9333 111.534 18.8667 112.95 18.1C114.367 17.3167 115.959 16.925 117.725 16.925C119.475 16.925 121.059 17.3167 122.475 18.1C123.892 18.8667 125 19.9333 125.8 21.3C126.6 22.65 127 24.175 127 25.875C127 27.575 126.6 29.1083 125.8 30.475C125 31.825 123.892 32.8917 122.475 33.675C121.059 34.4417 119.475 34.825 117.725 34.825ZM117.725 32.6C119.009 32.6 120.159 32.3083 121.175 31.725C122.209 31.1417 123.017 30.3417 123.6 29.325C124.2 28.2917 124.5 27.1417 124.5 25.875C124.5 24.6083 124.2 23.4667 123.6 22.45C123.017 21.4167 122.209 20.6083 121.175 20.025C120.159 19.4417 119.009 19.15 117.725 19.15C116.442 19.15 115.275 19.4417 114.225 20.025C113.192 20.6083 112.375 21.4167 111.775 22.45C111.192 23.4667 110.9 24.6083 110.9 25.875C110.9 27.1417 111.192 28.2917 111.775 29.325C112.375 30.3417 113.192 31.1417 114.225 31.725C115.275 32.3083 116.442 32.6 117.725 32.6ZM145.871 17.125V34.625H143.821L133.321 21.575V34.625H130.821V17.125H132.871L143.371 30.175V17.125H145.871ZM154.584 19.3H148.584V17.125H163.059V19.3H157.059V34.625H154.584V19.3ZM165.782 17.125H168.282V34.625H165.782V17.125ZM188.571 17.125V34.625H186.521L176.021 21.575V34.625H173.521V17.125H175.571L186.071 30.175V17.125H188.571ZM201.06 34.825C198.726 34.825 196.91 34.1583 195.61 32.825C194.31 31.4917 193.66 29.575 193.66 27.075V17.125H196.16V26.975C196.16 30.725 197.801 32.6 201.085 32.6C202.685 32.6 203.91 32.1417 204.76 31.225C205.61 30.2917 206.035 28.875 206.035 26.975V17.125H208.46V27.075C208.46 29.5917 207.81 31.5167 206.51 32.85C205.21 34.1667 203.393 34.825 201.06 34.825ZM226.285 32.45V34.625H213.585V17.125H225.935V19.3H216.085V24.675H224.86V26.8H216.085V32.45H226.285Z" fill="white"/>
</svg>
