<svg width="121" height="46" viewBox="0 0 121 46" fill="none" xmlns="http://www.w3.org/2000/svg">
<rect x="0.796875" y="0.579102" width="119.661" height="44.9459" fill="white"/>
<path d="M14.4466 28.6077C13.1746 28.6077 12.0226 28.3317 10.9906 27.7797C9.97061 27.2157 9.16661 26.4417 8.57861 25.4577C8.00261 24.4737 7.71461 23.3637 7.71461 22.1277C7.71461 20.8917 8.00861 19.7817 8.59661 18.7977C9.18461 17.8137 9.98861 17.0457 11.0086 16.4937C12.0406 15.9297 13.1926 15.6477 14.4646 15.6477C15.4966 15.6477 16.4386 15.8277 17.2906 16.1877C18.1426 16.5477 18.8626 17.0697 19.4506 17.7537L17.9386 19.1757C17.0266 18.1917 15.9046 17.6997 14.5726 17.6997C13.7086 17.6997 12.9346 17.8917 12.2506 18.2757C11.5666 18.6477 11.0326 19.1697 10.6486 19.8417C10.2646 20.5137 10.0726 21.2757 10.0726 22.1277C10.0726 22.9797 10.2646 23.7417 10.6486 24.4137C11.0326 25.0857 11.5666 25.6137 12.2506 25.9977C12.9346 26.3697 13.7086 26.5557 14.5726 26.5557C15.9046 26.5557 17.0266 26.0577 17.9386 25.0617L19.4506 26.5017C18.8626 27.1857 18.1366 27.7077 17.2726 28.0677C16.4206 28.4277 15.4786 28.6077 14.4466 28.6077ZM23.6187 20.2197C24.2667 19.2117 25.4067 18.7077 27.0387 18.7077V20.8497C26.8467 20.8137 26.6727 20.7957 26.5167 20.7957C25.6407 20.7957 24.9567 21.0537 24.4647 21.5697C23.9727 22.0737 23.7267 22.8057 23.7267 23.7657V28.4277H21.4767V18.8157H23.6187V20.2197ZM37.8955 23.6757C37.8955 23.8317 37.8835 24.0537 37.8595 24.3417H30.3175C30.4495 25.0497 30.7915 25.6137 31.3435 26.0337C31.9075 26.4417 32.6035 26.6457 33.4315 26.6457C34.4875 26.6457 35.3575 26.2977 36.0415 25.6017L37.2475 26.9877C36.8155 27.5037 36.2695 27.8937 35.6095 28.1577C34.9495 28.4217 34.2055 28.5537 33.3775 28.5537C32.3215 28.5537 31.3915 28.3437 30.5875 27.9237C29.7835 27.5037 29.1595 26.9217 28.7155 26.1777C28.2835 25.4217 28.0675 24.5697 28.0675 23.6217C28.0675 22.6857 28.2775 21.8457 28.6975 21.1017C29.1295 20.3457 29.7235 19.7577 30.4795 19.3377C31.2355 18.9177 32.0875 18.7077 33.0355 18.7077C33.9715 18.7077 34.8055 18.9177 35.5375 19.3377C36.2815 19.7457 36.8575 20.3277 37.2655 21.0837C37.6855 21.8277 37.8955 22.6917 37.8955 23.6757ZM33.0355 20.5077C32.3155 20.5077 31.7035 20.7237 31.1995 21.1557C30.7075 21.5757 30.4075 22.1397 30.2995 22.8477H35.7535C35.6575 22.1517 35.3635 21.5877 34.8715 21.1557C34.3795 20.7237 33.7675 20.5077 33.0355 20.5077ZM43.4651 18.7077C44.8811 18.7077 45.9611 19.0497 46.7051 19.7337C47.4611 20.4057 47.8391 21.4257 47.8391 22.7937V28.4277H45.7151V27.2577C45.4391 27.6777 45.0431 28.0017 44.5271 28.2297C44.0231 28.4457 43.4111 28.5537 42.6911 28.5537C41.9711 28.5537 41.3411 28.4337 40.8011 28.1937C40.2611 27.9417 39.8411 27.5997 39.5411 27.1677C39.2531 26.7237 39.1091 26.2257 39.1091 25.6737C39.1091 24.8097 39.4271 24.1197 40.0631 23.6037C40.7111 23.0757 41.7251 22.8117 43.1051 22.8117H45.5891V22.6677C45.5891 21.9957 45.3851 21.4797 44.9771 21.1197C44.5811 20.7597 43.9871 20.5797 43.1951 20.5797C42.6551 20.5797 42.1211 20.6637 41.5931 20.8317C41.0771 20.9997 40.6391 21.2337 40.2791 21.5337L39.3971 19.8957C39.9011 19.5117 40.5071 19.2177 41.2151 19.0137C41.9231 18.8097 42.6731 18.7077 43.4651 18.7077ZM43.1591 26.9157C43.7231 26.9157 44.2211 26.7897 44.6531 26.5377C45.0971 26.2737 45.4091 25.9017 45.5891 25.4217V24.3057H43.2671C41.9711 24.3057 41.3231 24.7317 41.3231 25.5837C41.3231 25.9917 41.4851 26.3157 41.8091 26.5557C42.1331 26.7957 42.5831 26.9157 43.1591 26.9157ZM56.5047 27.9057C56.2407 28.1217 55.9167 28.2837 55.5327 28.3917C55.1607 28.4997 54.7647 28.5537 54.3447 28.5537C53.2887 28.5537 52.4727 28.2777 51.8967 27.7257C51.3207 27.1737 51.0327 26.3697 51.0327 25.3137V20.6877H49.4487V18.8877H51.0327V16.6917H53.2827V18.8877H55.8567V20.6877H53.2827V25.2597C53.2827 25.7277 53.3967 26.0877 53.6247 26.3397C53.8527 26.5797 54.1827 26.6997 54.6147 26.6997C55.1187 26.6997 55.5387 26.5677 55.8747 26.3037L56.5047 27.9057ZM67.0752 23.6757C67.0752 23.8317 67.0632 24.0537 67.0392 24.3417H59.4972C59.6292 25.0497 59.9712 25.6137 60.5232 26.0337C61.0872 26.4417 61.7832 26.6457 62.6112 26.6457C63.6672 26.6457 64.5372 26.2977 65.2212 25.6017L66.4272 26.9877C65.9952 27.5037 65.4492 27.8937 64.7892 28.1577C64.1292 28.4217 63.3852 28.5537 62.5572 28.5537C61.5012 28.5537 60.5712 28.3437 59.7672 27.9237C58.9632 27.5037 58.3392 26.9217 57.8952 26.1777C57.4632 25.4217 57.2472 24.5697 57.2472 23.6217C57.2472 22.6857 57.4572 21.8457 57.8772 21.1017C58.3092 20.3457 58.9032 19.7577 59.6592 19.3377C60.4152 18.9177 61.2672 18.7077 62.2152 18.7077C63.1512 18.7077 63.9852 18.9177 64.7172 19.3377C65.4612 19.7457 66.0372 20.3277 66.4452 21.0837C66.8652 21.8277 67.0752 22.6917 67.0752 23.6757ZM62.2152 20.5077C61.4952 20.5077 60.8832 20.7237 60.3792 21.1557C59.8872 21.5757 59.5872 22.1397 59.4792 22.8477H64.9332C64.8372 22.1517 64.5432 21.5877 64.0512 21.1557C63.5592 20.7237 62.9472 20.5077 62.2152 20.5077ZM79.6651 18.7077C80.8771 18.7077 81.8491 19.0617 82.5811 19.7697C83.3131 20.4777 83.6791 21.5277 83.6791 22.9197V28.4277H81.4291V23.2077C81.4291 22.3677 81.2311 21.7377 80.8351 21.3177C80.4391 20.8857 79.8751 20.6697 79.1431 20.6697C78.3151 20.6697 77.6611 20.9217 77.1811 21.4257C76.7011 21.9177 76.4611 22.6317 76.4611 23.5677V28.4277H74.2111V18.8157H76.3531V20.0577C76.7251 19.6137 77.1931 19.2777 77.7571 19.0497C78.3211 18.8217 78.9571 18.7077 79.6651 18.7077ZM95.6573 23.6757C95.6573 23.8317 95.6453 24.0537 95.6213 24.3417H88.0793C88.2113 25.0497 88.5533 25.6137 89.1053 26.0337C89.6693 26.4417 90.3653 26.6457 91.1933 26.6457C92.2493 26.6457 93.1193 26.2977 93.8033 25.6017L95.0093 26.9877C94.5773 27.5037 94.0313 27.8937 93.3713 28.1577C92.7113 28.4217 91.9673 28.5537 91.1393 28.5537C90.0833 28.5537 89.1533 28.3437 88.3493 27.9237C87.5453 27.5037 86.9213 26.9217 86.4773 26.1777C86.0453 25.4217 85.8293 24.5697 85.8293 23.6217C85.8293 22.6857 86.0393 21.8457 86.4593 21.1017C86.8913 20.3457 87.4853 19.7577 88.2413 19.3377C88.9973 18.9177 89.8493 18.7077 90.7973 18.7077C91.7333 18.7077 92.5673 18.9177 93.2993 19.3377C94.0433 19.7457 94.6193 20.3277 95.0273 21.0837C95.4473 21.8277 95.6573 22.6917 95.6573 23.6757ZM90.7973 20.5077C90.0773 20.5077 89.4653 20.7237 88.9613 21.1557C88.4693 21.5757 88.1693 22.1397 88.0613 22.8477H93.5153C93.4193 22.1517 93.1253 21.5877 92.6333 21.1557C92.1413 20.7237 91.5293 20.5077 90.7973 20.5077ZM112.637 18.8157L109.091 28.4277H106.931L104.447 21.8037L101.927 28.4277H99.7667L96.2387 18.8157H98.3627L100.901 25.9077L103.547 18.8157H105.437L108.029 25.9437L110.639 18.8157H112.637Z" fill="black"/>
</svg>
