<svg width="311" height="311" viewBox="0 0 311 311" fill="none" xmlns="http://www.w3.org/2000/svg">
<circle cx="33.75" cy="6.75" r="6.75" fill="#BD74B6" fill-opacity="0.3"/>
<circle cx="33.75" cy="60.75" r="6.75" fill="#BD74B6" fill-opacity="0.3"/>
<circle cx="33.75" cy="114.75" r="6.75" fill="#BD74B6" fill-opacity="0.3"/>
<circle cx="33.75" cy="168.75" r="6.75" fill="#BD74B6" fill-opacity="0.3"/>
<circle cx="33.75" cy="222.75" r="6.75" fill="#BD74B6" fill-opacity="0.3"/>
<circle cx="33.75" cy="276.75" r="6.75" fill="#BD74B6" fill-opacity="0.3"/>
<circle cx="33.75" cy="33.75" r="6.75" fill="#BD74B6" fill-opacity="0.3"/>
<ellipse cx="33.75" cy="87.75" rx="6.75" ry="6.75" fill="#BD74B6" fill-opacity="0.3"/>
<circle cx="33.75" cy="141.75" r="6.75" fill="#BD74B6" fill-opacity="0.3"/>
<ellipse cx="33.75" cy="195.75" rx="6.75" ry="6.75001" fill="#BD74B6" fill-opacity="0.3"/>
<circle cx="33.75" cy="249.75" r="6.75" fill="#BD74B6" fill-opacity="0.3"/>
<circle cx="33.75" cy="303.75" r="6.75" fill="#BD74B6" fill-opacity="0.3"/>
<circle cx="6.75" cy="6.75" r="6.75" fill="#BD74B6" fill-opacity="0.3"/>
<circle cx="6.75" cy="60.75" r="6.75" fill="#BD74B6" fill-opacity="0.3"/>
<circle cx="6.75" cy="114.75" r="6.75" fill="#BD74B6" fill-opacity="0.3"/>
<circle cx="6.75" cy="168.75" r="6.75" fill="#BD74B6" fill-opacity="0.3"/>
<circle cx="6.75" cy="222.75" r="6.75" fill="#BD74B6" fill-opacity="0.3"/>
<circle cx="6.75" cy="276.75" r="6.75" fill="#BD74B6" fill-opacity="0.3"/>
<circle cx="6.75" cy="33.75" r="6.75" fill="#BD74B6" fill-opacity="0.3"/>
<ellipse cx="6.75" cy="87.75" rx="6.75" ry="6.75" fill="#BD74B6" fill-opacity="0.3"/>
<circle cx="6.75" cy="141.75" r="6.75" fill="#BD74B6" fill-opacity="0.3"/>
<ellipse cx="6.75" cy="195.75" rx="6.75" ry="6.75001" fill="#BD74B6" fill-opacity="0.3"/>
<circle cx="6.75" cy="249.75" r="6.75" fill="#BD74B6" fill-opacity="0.3"/>
<circle cx="6.75" cy="303.75" r="6.75" fill="#BD74B6" fill-opacity="0.3"/>
<circle cx="141.75" cy="6.75" r="6.75" fill="#BD74B6" fill-opacity="0.3"/>
<circle cx="141.75" cy="60.75" r="6.75" fill="#BD74B6" fill-opacity="0.3"/>
<circle cx="141.75" cy="114.75" r="6.75" fill="#BD74B6" fill-opacity="0.3"/>
<circle cx="141.75" cy="168.75" r="6.75" fill="#BD74B6" fill-opacity="0.3"/>
<circle cx="141.75" cy="222.75" r="6.75" fill="#BD74B6" fill-opacity="0.3"/>
<circle cx="141.75" cy="276.75" r="6.75" fill="#BD74B6" fill-opacity="0.3"/>
<circle cx="141.75" cy="33.75" r="6.75" fill="#BD74B6" fill-opacity="0.3"/>
<ellipse cx="141.75" cy="87.75" rx="6.75" ry="6.75" fill="#BD74B6" fill-opacity="0.3"/>
<circle cx="141.75" cy="141.75" r="6.75" fill="#BD74B6" fill-opacity="0.3"/>
<ellipse cx="141.75" cy="195.75" rx="6.75" ry="6.75001" fill="#BD74B6" fill-opacity="0.3"/>
<circle cx="141.75" cy="249.75" r="6.75" fill="#BD74B6" fill-opacity="0.3"/>
<circle cx="141.75" cy="303.75" r="6.75" fill="#BD74B6" fill-opacity="0.3"/>
<ellipse cx="87.75" cy="6.75" rx="6.75" ry="6.75" fill="#BD74B6" fill-opacity="0.3"/>
<ellipse cx="87.75" cy="60.75" rx="6.75" ry="6.75" fill="#BD74B6" fill-opacity="0.3"/>
<ellipse cx="87.75" cy="114.75" rx="6.75" ry="6.75" fill="#BD74B6" fill-opacity="0.3"/>
<ellipse cx="87.75" cy="168.75" rx="6.75" ry="6.75" fill="#BD74B6" fill-opacity="0.3"/>
<ellipse cx="87.75" cy="222.75" rx="6.75" ry="6.75" fill="#BD74B6" fill-opacity="0.3"/>
<ellipse cx="87.75" cy="276.75" rx="6.75" ry="6.75" fill="#BD74B6" fill-opacity="0.3"/>
<ellipse cx="87.75" cy="33.75" rx="6.75" ry="6.75" fill="#BD74B6" fill-opacity="0.3"/>
<circle cx="87.75" cy="87.75" r="6.75" fill="#BD74B6" fill-opacity="0.3"/>
<ellipse cx="87.75" cy="141.75" rx="6.75" ry="6.75" fill="#BD74B6" fill-opacity="0.3"/>
<ellipse cx="87.75" cy="195.75" rx="6.75" ry="6.75001" fill="#BD74B6" fill-opacity="0.3"/>
<ellipse cx="87.75" cy="249.75" rx="6.75" ry="6.75" fill="#BD74B6" fill-opacity="0.3"/>
<ellipse cx="87.75" cy="303.75" rx="6.75" ry="6.75" fill="#BD74B6" fill-opacity="0.3"/>
<ellipse cx="195.75" cy="6.75" rx="6.75001" ry="6.75" fill="#BD74B6" fill-opacity="0.3"/>
<ellipse cx="195.75" cy="60.75" rx="6.75001" ry="6.75" fill="#BD74B6" fill-opacity="0.3"/>
<ellipse cx="195.75" cy="114.75" rx="6.75001" ry="6.75" fill="#BD74B6" fill-opacity="0.3"/>
<ellipse cx="195.75" cy="168.75" rx="6.75001" ry="6.75" fill="#BD74B6" fill-opacity="0.3"/>
<ellipse cx="195.75" cy="222.75" rx="6.75001" ry="6.75" fill="#BD74B6" fill-opacity="0.3"/>
<ellipse cx="195.75" cy="276.75" rx="6.75001" ry="6.75" fill="#BD74B6" fill-opacity="0.3"/>
<ellipse cx="195.75" cy="33.75" rx="6.75001" ry="6.75" fill="#BD74B6" fill-opacity="0.3"/>
<ellipse cx="195.75" cy="87.75" rx="6.75001" ry="6.75" fill="#BD74B6" fill-opacity="0.3"/>
<ellipse cx="195.75" cy="141.75" rx="6.75001" ry="6.75" fill="#BD74B6" fill-opacity="0.3"/>
<circle cx="195.75" cy="195.75" r="6.75001" fill="#BD74B6" fill-opacity="0.3"/>
<ellipse cx="195.75" cy="249.75" rx="6.75001" ry="6.75" fill="#BD74B6" fill-opacity="0.3"/>
<ellipse cx="195.75" cy="303.75" rx="6.75001" ry="6.75" fill="#BD74B6" fill-opacity="0.3"/>
<circle cx="276.75" cy="6.75" r="6.75" fill="#BD74B6" fill-opacity="0.3"/>
<circle cx="276.75" cy="60.75" r="6.75" fill="#BD74B6" fill-opacity="0.3"/>
<circle cx="276.75" cy="114.75" r="6.75" fill="#BD74B6" fill-opacity="0.3"/>
<circle cx="276.75" cy="168.75" r="6.75" fill="#BD74B6" fill-opacity="0.3"/>
<circle cx="276.75" cy="222.75" r="6.75" fill="#BD74B6" fill-opacity="0.3"/>
<circle cx="276.75" cy="276.75" r="6.75" fill="#BD74B6" fill-opacity="0.3"/>
<circle cx="276.75" cy="33.75" r="6.75" fill="#BD74B6" fill-opacity="0.3"/>
<ellipse cx="276.75" cy="87.75" rx="6.75" ry="6.75" fill="#BD74B6" fill-opacity="0.3"/>
<circle cx="276.75" cy="141.75" r="6.75" fill="#BD74B6" fill-opacity="0.3"/>
<ellipse cx="276.75" cy="195.75" rx="6.75" ry="6.75001" fill="#BD74B6" fill-opacity="0.3"/>
<circle cx="276.75" cy="249.75" r="6.75" fill="#BD74B6" fill-opacity="0.3"/>
<circle cx="276.75" cy="303.75" r="6.75" fill="#BD74B6" fill-opacity="0.3"/>
<circle cx="60.75" cy="6.75" r="6.75" fill="#BD74B6" fill-opacity="0.3"/>
<circle cx="60.75" cy="60.75" r="6.75" fill="#BD74B6" fill-opacity="0.3"/>
<circle cx="60.75" cy="114.75" r="6.75" fill="#BD74B6" fill-opacity="0.3"/>
<circle cx="60.75" cy="168.75" r="6.75" fill="#BD74B6" fill-opacity="0.3"/>
<circle cx="60.75" cy="222.75" r="6.75" fill="#BD74B6" fill-opacity="0.3"/>
<circle cx="60.75" cy="276.75" r="6.75" fill="#BD74B6" fill-opacity="0.3"/>
<circle cx="60.75" cy="33.75" r="6.75" fill="#BD74B6" fill-opacity="0.3"/>
<ellipse cx="60.75" cy="87.75" rx="6.75" ry="6.75" fill="#BD74B6" fill-opacity="0.3"/>
<circle cx="60.75" cy="141.75" r="6.75" fill="#BD74B6" fill-opacity="0.3"/>
<ellipse cx="60.75" cy="195.75" rx="6.75" ry="6.75001" fill="#BD74B6" fill-opacity="0.3"/>
<circle cx="60.75" cy="249.75" r="6.75" fill="#BD74B6" fill-opacity="0.3"/>
<circle cx="60.75" cy="303.75" r="6.75" fill="#BD74B6" fill-opacity="0.3"/>
<circle cx="168.75" cy="6.75" r="6.75" fill="#BD74B6" fill-opacity="0.3"/>
<circle cx="168.75" cy="60.75" r="6.75" fill="#BD74B6" fill-opacity="0.3"/>
<circle cx="168.75" cy="114.75" r="6.75" fill="#BD74B6" fill-opacity="0.3"/>
<circle cx="168.75" cy="168.75" r="6.75" fill="#BD74B6" fill-opacity="0.3"/>
<circle cx="168.75" cy="222.75" r="6.75" fill="#BD74B6" fill-opacity="0.3"/>
<circle cx="168.75" cy="276.75" r="6.75" fill="#BD74B6" fill-opacity="0.3"/>
<circle cx="168.75" cy="33.75" r="6.75" fill="#BD74B6" fill-opacity="0.3"/>
<ellipse cx="168.75" cy="87.75" rx="6.75" ry="6.75" fill="#BD74B6" fill-opacity="0.3"/>
<circle cx="168.75" cy="141.75" r="6.75" fill="#BD74B6" fill-opacity="0.3"/>
<ellipse cx="168.75" cy="195.75" rx="6.75" ry="6.75001" fill="#BD74B6" fill-opacity="0.3"/>
<circle cx="168.75" cy="249.75" r="6.75" fill="#BD74B6" fill-opacity="0.3"/>
<circle cx="168.75" cy="303.75" r="6.75" fill="#BD74B6" fill-opacity="0.3"/>
<circle cx="249.75" cy="6.75" r="6.75" fill="#BD74B6" fill-opacity="0.3"/>
<circle cx="249.75" cy="60.75" r="6.75" fill="#BD74B6" fill-opacity="0.3"/>
<circle cx="249.75" cy="114.75" r="6.75" fill="#BD74B6" fill-opacity="0.3"/>
<circle cx="249.75" cy="168.75" r="6.75" fill="#BD74B6" fill-opacity="0.3"/>
<circle cx="249.75" cy="222.75" r="6.75" fill="#BD74B6" fill-opacity="0.3"/>
<circle cx="249.75" cy="276.75" r="6.75" fill="#BD74B6" fill-opacity="0.3"/>
<circle cx="249.75" cy="33.75" r="6.75" fill="#BD74B6" fill-opacity="0.3"/>
<ellipse cx="249.75" cy="87.75" rx="6.75" ry="6.75" fill="#BD74B6" fill-opacity="0.3"/>
<circle cx="249.75" cy="141.75" r="6.75" fill="#BD74B6" fill-opacity="0.3"/>
<ellipse cx="249.75" cy="195.75" rx="6.75" ry="6.75001" fill="#BD74B6" fill-opacity="0.3"/>
<circle cx="249.75" cy="249.75" r="6.75" fill="#BD74B6" fill-opacity="0.3"/>
<circle cx="249.75" cy="303.75" r="6.75" fill="#BD74B6" fill-opacity="0.3"/>
<circle cx="114.75" cy="6.75" r="6.75" fill="#BD74B6" fill-opacity="0.3"/>
<circle cx="114.75" cy="60.75" r="6.75" fill="#BD74B6" fill-opacity="0.3"/>
<circle cx="114.75" cy="114.75" r="6.75" fill="#BD74B6" fill-opacity="0.3"/>
<circle cx="114.75" cy="168.75" r="6.75" fill="#BD74B6" fill-opacity="0.3"/>
<circle cx="114.75" cy="222.75" r="6.75" fill="#BD74B6" fill-opacity="0.3"/>
<circle cx="114.75" cy="276.75" r="6.75" fill="#BD74B6" fill-opacity="0.3"/>
<circle cx="114.75" cy="33.75" r="6.75" fill="#BD74B6" fill-opacity="0.3"/>
<ellipse cx="114.75" cy="87.75" rx="6.75" ry="6.75" fill="#BD74B6" fill-opacity="0.3"/>
<circle cx="114.75" cy="141.75" r="6.75" fill="#BD74B6" fill-opacity="0.3"/>
<ellipse cx="114.75" cy="195.75" rx="6.75" ry="6.75001" fill="#BD74B6" fill-opacity="0.3"/>
<circle cx="114.75" cy="249.75" r="6.75" fill="#BD74B6" fill-opacity="0.3"/>
<circle cx="114.75" cy="303.75" r="6.75" fill="#BD74B6" fill-opacity="0.3"/>
<circle cx="222.75" cy="6.75" r="6.75" fill="#BD74B6" fill-opacity="0.3"/>
<circle cx="222.75" cy="60.75" r="6.75" fill="#BD74B6" fill-opacity="0.3"/>
<circle cx="222.75" cy="114.75" r="6.75" fill="#BD74B6" fill-opacity="0.3"/>
<circle cx="222.75" cy="168.75" r="6.75" fill="#BD74B6" fill-opacity="0.3"/>
<circle cx="222.75" cy="222.75" r="6.75" fill="#BD74B6" fill-opacity="0.3"/>
<circle cx="222.75" cy="276.75" r="6.75" fill="#BD74B6" fill-opacity="0.3"/>
<circle cx="222.75" cy="33.75" r="6.75" fill="#BD74B6" fill-opacity="0.3"/>
<ellipse cx="222.75" cy="87.75" rx="6.75" ry="6.75" fill="#BD74B6" fill-opacity="0.3"/>
<circle cx="222.75" cy="141.75" r="6.75" fill="#BD74B6" fill-opacity="0.3"/>
<ellipse cx="222.75" cy="195.75" rx="6.75" ry="6.75001" fill="#BD74B6" fill-opacity="0.3"/>
<circle cx="222.75" cy="249.75" r="6.75" fill="#BD74B6" fill-opacity="0.3"/>
<circle cx="222.75" cy="303.75" r="6.75" fill="#BD74B6" fill-opacity="0.3"/>
<circle cx="303.75" cy="6.75" r="6.75" fill="#BD74B6" fill-opacity="0.3"/>
<circle cx="303.75" cy="60.75" r="6.75" fill="#BD74B6" fill-opacity="0.3"/>
<circle cx="303.75" cy="114.75" r="6.75" fill="#BD74B6" fill-opacity="0.3"/>
<circle cx="303.75" cy="168.75" r="6.75" fill="#BD74B6" fill-opacity="0.3"/>
<circle cx="303.75" cy="222.75" r="6.75" fill="#BD74B6" fill-opacity="0.3"/>
<circle cx="303.75" cy="276.75" r="6.75" fill="#BD74B6" fill-opacity="0.3"/>
<circle cx="303.75" cy="33.75" r="6.75" fill="#BD74B6" fill-opacity="0.3"/>
<ellipse cx="303.75" cy="87.75" rx="6.75" ry="6.75" fill="#BD74B6" fill-opacity="0.3"/>
<circle cx="303.75" cy="141.75" r="6.75" fill="#BD74B6" fill-opacity="0.3"/>
<ellipse cx="303.75" cy="195.75" rx="6.75" ry="6.75001" fill="#BD74B6" fill-opacity="0.3"/>
<circle cx="303.75" cy="249.75" r="6.75" fill="#BD74B6" fill-opacity="0.3"/>
<circle cx="303.75" cy="303.75" r="6.75" fill="#BD74B6" fill-opacity="0.3"/>
</svg>
