<svg width="270" height="270" viewBox="0 0 270 270" fill="none" xmlns="http://www.w3.org/2000/svg">
<g opacity="0.8">
<path d="M168.818 190.227C150.02 190.227 134.728 174.934 134.728 156.136C134.728 153.952 132.957 152.181 130.772 152.181C128.588 152.181 126.817 153.952 126.817 156.136C126.817 179.296 145.659 198.137 168.818 198.137C171.002 198.137 172.773 196.366 172.773 194.182C172.773 191.997 171.002 190.227 168.818 190.227Z" fill="#CC46A6" fill-opacity="0.5"/>
<path d="M130.773 118.363C109.945 118.363 93 135.308 93 156.136C93 178.507 102.842 199.638 120.003 214.109C120.745 214.735 121.651 215.041 122.551 215.041C123.676 215.041 124.794 214.563 125.576 213.635C126.984 211.965 126.772 209.47 125.103 208.062C109.728 195.097 100.911 176.171 100.911 156.137C100.91 139.67 114.307 126.273 130.773 126.273C147.239 126.273 160.636 139.67 160.636 156.136C160.636 158.321 162.407 160.091 164.591 160.091C166.775 160.091 168.546 158.321 168.546 156.136C168.546 135.308 151.601 118.363 130.773 118.363Z" fill="#AD69A7" fill-opacity="0.6"/>
<path d="M130.773 143.182C137.915 143.182 143.726 148.994 143.726 156.136C143.726 167.64 153.086 177 164.59 177C176.094 177 185.455 167.64 185.455 156.136C185.455 125.985 160.924 101.455 130.773 101.455C100.621 101.455 76.0908 125.985 76.0908 156.136C76.0908 168.333 78.4428 180.217 83.0813 191.458C83.915 193.477 86.2274 194.438 88.2461 193.605C90.2653 192.772 91.2266 190.46 90.3934 188.44C86.1515 178.161 84.0004 167.292 84.0004 156.136C84.0004 130.346 104.982 109.364 130.772 109.364C156.562 109.364 177.544 130.346 177.544 156.136C177.544 163.279 171.733 169.09 164.59 169.09C157.448 169.09 151.637 163.278 151.637 156.136C151.637 144.631 142.277 135.272 130.773 135.272C119.269 135.272 109.909 144.632 109.909 156.136C109.909 188.619 136.336 215.045 168.818 215.045C171.002 215.045 172.773 213.275 172.773 211.09C172.773 208.906 171.002 207.135 168.818 207.135C140.697 207.135 117.819 184.257 117.819 156.136C117.819 148.993 123.63 143.182 130.773 143.182Z" fill="#BA90B6" fill-opacity="0.3"/>
<path d="M130.773 84.5454C91.2974 84.5454 59.1816 116.661 59.1816 156.137C59.1816 158.321 60.9525 160.092 63.1367 160.092C65.321 160.092 67.0918 158.321 67.0918 156.137C67.0918 121.023 95.6591 92.4556 130.773 92.4556C165.886 92.4556 194.454 121.023 194.454 156.137C194.454 158.321 196.225 160.092 198.409 160.092C200.593 160.092 202.364 158.321 202.364 156.137C202.364 116.661 170.248 84.5454 130.773 84.5454Z" fill="#AD69A7" fill-opacity="0.5"/>
<path d="M192.71 92.977C176.05 76.6357 154.052 67.6355 130.772 67.6355C105.418 67.636 81.2247 78.5784 64.3972 97.6572C62.9523 99.2951 63.1089 101.795 64.7473 103.239C65.4993 103.903 66.4322 104.228 67.3619 104.228C68.4577 104.228 69.5483 103.775 70.3293 102.889C85.6565 85.5119 107.687 75.5457 130.773 75.5457C151.969 75.5457 171.999 83.7416 187.172 98.6243C188.732 100.154 191.235 100.129 192.765 98.57C194.294 97.0101 194.27 94.5063 192.71 92.977Z" fill="#BA90B6" fill-opacity="0.3"/>
<path d="M183.153 65.2896C167.23 56.0521 149.002 51.1694 130.441 51.1694C115.895 51.1694 101.744 54.1247 88.3824 59.9539C86.3806 60.8272 85.4651 63.1586 86.3389 65.1609C87.2127 67.1632 89.543 68.0782 91.5459 67.2049C103.904 61.8133 116.99 59.0801 130.442 59.0801C147.61 59.0801 164.465 63.5937 179.184 72.1319C179.808 72.4947 180.491 72.6666 181.165 72.6666C182.529 72.6666 183.856 71.96 184.589 70.6954C185.686 68.8059 185.042 66.3859 183.153 65.2896Z" fill="#AD69A7" fill-opacity="0.6"/>
<path d="M212.069 45.5662C189.549 26.1225 160.722 15.9769 130.898 16.9962C100.919 18.0214 72.7202 30.2742 51.4973 51.4977C30.2738 72.7212 18.021 100.92 16.9958 130.899C15.9759 160.723 26.1226 189.55 45.5657 212.069C46.3478 212.975 47.451 213.44 48.561 213.44C49.4765 213.44 50.3967 213.123 51.144 212.478C52.7972 211.051 52.9802 208.553 51.5527 206.9C33.4147 185.892 23.9494 158.997 24.9007 131.169C25.8568 103.2 37.2885 76.8914 57.0898 57.0902C76.891 37.289 103.199 25.8572 131.168 24.9011C158.997 23.9551 185.891 33.4151 206.899 51.5531C208.553 52.9806 211.05 52.7976 212.477 51.1444C213.905 49.4912 213.722 46.9937 212.069 45.5662Z" fill="#CC46A6" fill-opacity="0.5"/>
<path d="M224.435 57.9307C223.007 56.277 220.51 56.094 218.857 57.522C217.203 58.9495 217.02 61.447 218.448 63.1003C236.586 84.1081 246.051 111.003 245.1 138.831C244.144 166.8 232.712 193.108 212.911 212.91C193.109 232.711 166.801 244.143 138.832 245.099C111.008 246.05 84.1091 236.585 63.1013 218.447C61.4476 217.019 58.9501 217.202 57.5231 218.855C56.0956 220.509 56.2786 223.006 57.9318 224.434C79.4195 242.986 106.649 253.074 135.008 253.074C136.37 253.074 137.735 253.051 139.103 253.004C169.082 251.978 197.281 239.726 218.504 218.502C239.727 197.279 251.98 169.08 253.005 139.101C254.025 109.278 243.878 80.4504 224.435 57.9307Z" fill="#BA90B6" fill-opacity="0.3"/>
</g>
</svg>
