<svg width="270" height="270" viewBox="0 0 270 270" fill="none" xmlns="http://www.w3.org/2000/svg">
<path d="M120.656 0.527344C114.012 1.37109 112.852 1.89844 110.795 5.32617C109.793 6.96094 109.688 7.96289 109.688 15.3984V23.6777L107.473 24.2578C98.5078 26.4727 84.5332 32.168 76.8867 36.7559L74.4082 38.2324L68.4492 32.3789C62.332 26.4199 61.3828 25.8398 57.2695 25.8398C56.373 25.8398 54.8438 26.3145 53.8418 26.9473C47.4082 30.8496 30.8496 47.4082 26.9473 53.7891C26.3672 54.791 25.8398 56.373 25.8398 57.2695C25.8398 61.3828 26.4199 62.332 32.3789 68.4492L38.2324 74.4082L36.7559 76.8867C32.168 84.5332 26.4727 98.5078 24.2578 107.42L23.6777 109.688H15.4512C8.12109 109.688 7.06641 109.793 5.32617 110.795C0.84375 113.326 0.263672 115.91 0.263672 135C0.263672 154.09 0.84375 156.674 5.32617 159.205C7.06641 160.207 8.12109 160.312 15.4512 160.312H23.6777L24.2578 162.527C26.4727 171.492 32.168 185.467 36.7559 193.113L38.2324 195.592L32.3789 201.551C26.4199 207.668 25.8398 208.617 25.8398 212.73C25.8398 213.627 26.3145 215.156 26.9473 216.158C30.8496 222.592 47.4082 239.15 53.7891 243.053C54.791 243.633 56.373 244.16 57.2695 244.16C61.3828 244.16 62.332 243.58 68.4492 237.674L74.3555 231.873L76.8867 233.297C85.1133 238.043 98.6133 243.58 107.473 245.742L109.688 246.322V254.549C109.688 261.879 109.793 262.934 110.795 264.674C113.326 269.156 115.91 269.736 135 269.736C154.09 269.736 156.674 269.156 159.205 264.674C160.207 262.934 160.312 261.879 160.312 254.549V246.322L162.58 245.742C171.492 243.527 185.467 237.832 193.113 233.244L195.592 231.768L201.551 237.621C207.668 243.58 208.617 244.16 212.73 244.16C213.627 244.16 215.156 243.686 216.158 243.053C222.592 239.15 239.15 222.592 243.053 216.211C243.633 215.209 244.16 213.627 244.16 212.73C244.16 208.617 243.58 207.668 237.621 201.551L231.768 195.592L233.244 193.113C237.832 185.467 243.527 171.492 245.742 162.527L246.322 160.312H254.549C261.879 160.312 262.934 160.207 264.674 159.205C269.156 156.674 269.736 154.09 269.736 135C269.736 115.91 269.156 113.326 264.674 110.795C262.934 109.793 261.879 109.688 254.549 109.688H246.322L245.742 107.42C243.527 98.5078 237.832 84.5332 233.244 76.8867L231.768 74.4082L237.621 68.4492C243.58 62.332 244.16 61.3828 244.16 57.2695C244.16 56.373 243.633 54.791 243.053 53.7891C239.15 47.4082 222.592 30.8496 216.158 26.9473C215.156 26.3145 213.627 25.8398 212.73 25.8398C208.617 25.8398 207.668 26.4199 201.551 32.3789L195.592 38.2324L193.113 36.7559C185.467 32.168 171.492 26.4727 162.58 24.2578L160.312 23.6777V15.4512C160.312 8.12109 160.207 7.06641 159.205 5.32617C157.781 2.84766 156.146 1.6875 153.088 1.00195C149.818 0.316406 125.297 -0.0527344 120.656 0.527344ZM150.979 9.22852C151.77 9.54492 151.875 10.5469 151.875 18.9844C151.875 30.4805 151.875 30.5332 158.045 31.9043C168.434 34.1719 181.037 39.3398 190.213 44.9824C193.008 46.7754 195.592 47.9883 196.488 47.9883C197.648 47.9883 199.336 46.6172 204.873 41.1328L211.834 34.2246L216 37.6523C220.746 41.502 229.658 50.4668 233.297 55.0547L235.775 58.166L228.92 65.127C223.383 70.6641 222.012 72.3516 222.012 73.5117C222.012 74.4082 223.225 76.9922 225.018 79.7871C230.66 88.9629 235.828 101.566 238.096 111.955C239.467 118.125 239.52 118.125 251.068 118.125H260.508L260.877 119.549C261.141 120.393 261.299 127.301 261.299 135C261.299 142.699 261.141 149.607 260.877 150.398L260.508 151.875H251.068C239.52 151.875 239.467 151.875 238.096 158.045C235.828 168.434 230.66 181.037 225.018 190.213C223.225 193.008 222.012 195.592 222.012 196.488C222.012 197.648 223.383 199.336 228.92 204.873L235.775 211.834L233.297 214.945C229.658 219.533 220.746 228.498 216 232.348L211.834 235.775L204.873 228.867C199.336 223.383 197.648 222.012 196.488 222.012C195.592 222.012 193.008 223.225 190.213 225.018C181.037 230.66 168.434 235.828 158.045 238.096C151.875 239.467 151.875 239.52 151.875 251.068V260.508L150.451 260.877C148.553 261.404 121.447 261.404 119.602 260.877L118.125 260.508V251.068C118.125 239.52 118.125 239.467 111.955 238.096C101.566 235.828 88.9629 230.66 79.7871 225.018C76.9922 223.225 74.4082 222.012 73.5117 222.012C72.3516 222.012 70.6641 223.383 65.127 228.867L58.166 235.775L54 232.348C49.2539 228.498 40.3418 219.533 36.7031 214.945L34.2246 211.834L41.0801 204.873C46.6172 199.336 47.9883 197.648 47.9883 196.488C47.9883 195.592 46.7754 193.008 44.9824 190.213C39.3398 181.037 34.1719 168.434 31.9043 158.045C30.5332 151.875 30.4805 151.875 18.9316 151.875H9.49219L9.12305 150.398C8.5957 148.553 8.5957 121.447 9.12305 119.549L9.49219 118.125H18.9316C30.4805 118.125 30.5332 118.125 31.9043 111.955C34.1719 101.566 39.3398 88.9629 44.9824 79.7871C46.7754 76.9922 47.9883 74.4082 47.9883 73.5117C47.9883 72.3516 46.6172 70.6641 41.0801 65.127L34.2246 58.166L36.7031 55.0547C40.3418 50.4668 49.2539 41.502 54 37.6523L58.166 34.2246L65.127 41.1328C70.6641 46.6172 72.3516 47.9883 73.5117 47.9883C74.4082 47.9883 76.9922 46.7754 79.7871 44.9824C88.9629 39.3398 101.566 34.1719 111.955 31.9043C118.125 30.5332 118.125 30.4805 118.125 18.9316C118.125 8.2793 117.703 9.28125 122.607 8.75391C126.035 8.4375 149.924 8.80664 150.979 9.22852Z" fill="#CC46A6" fill-opacity="0.5"/>
<path d="M125.771 50.9415C122.238 51.3634 115.488 52.7345 111.006 54.0528C92.0742 59.4845 74.8828 72.2989 64.2305 88.8575C59.8008 95.713 56.2148 103.518 54.0527 111.006C51.3633 120.234 50.9414 123.662 50.8887 134.736C50.8887 145.442 51.2578 148.658 53.3672 156.621C55.8457 166.008 61.0664 177.082 66.6562 184.623C70.1367 189.369 71.5605 190.266 73.9336 189.369C76.9922 188.209 77.4141 185.203 75.041 181.775C70.5586 175.289 69.3984 173.338 67.2363 169.225C64.4941 163.899 61.541 155.461 60.2754 149.186C59.1152 143.543 59.0098 127.512 60.0645 122.08C63.2285 105.574 70.5586 91.8106 82.1074 80.631C93.3398 69.7149 106.154 63.1231 122.08 60.0645C127.512 59.0099 143.543 59.1153 149.186 60.2755C155.461 61.5411 163.898 64.4942 169.225 67.2364C173.338 69.3985 175.289 70.5587 181.775 75.0411C185.203 77.4142 188.209 76.9923 189.369 73.9337C190.266 71.5606 189.369 70.1368 184.623 66.6563C175.289 59.7481 162.896 54.422 150.504 51.8907C146.443 51.0997 130.254 50.4669 125.771 50.9415Z" fill="#AD69A7" fill-opacity="0.6"/>
<path d="M195.645 80.8417C192.533 82.4238 192.691 85.3242 196.066 89.8593C202.447 98.4023 207.457 109.74 209.725 120.814C210.885 126.457 210.99 142.488 209.936 147.92C206.877 163.846 200.285 176.66 189.369 187.893C178.189 199.441 164.426 206.771 147.92 209.935C142.488 210.99 126.457 210.885 120.814 209.725C114.539 208.459 106.102 205.506 100.775 202.764C96.6621 200.602 94.7109 199.441 88.2246 194.959C84.2695 192.217 80.4727 193.482 80.4727 197.437C80.4727 199.81 81.3164 200.707 87.4863 204.82C96.082 210.621 106.893 215.314 116.543 217.477C132.311 220.957 151.348 219.48 165.955 213.627C185.414 205.875 201.129 191.531 210.357 173.074C214.154 165.533 216.158 159.627 218.109 150.293C219.322 144.65 219.48 126.721 218.426 121.025C216.053 108.685 211.728 97.8749 205.4 88.33C200.338 80.789 198.492 79.3652 195.645 80.8417Z" fill="#BA90B6" fill-opacity="0.3"/>
<path d="M129.463 106.26C116.86 109.687 110.426 123.82 116.016 135.686C116.702 137.109 118.336 139.482 119.76 141.012L122.239 143.754L122.45 154.037C122.608 165.27 122.766 165.955 126.141 169.277C128.567 171.703 131.573 172.969 135 172.969C138.428 172.969 141.434 171.703 143.86 169.277C147.235 165.955 147.393 165.27 147.551 154.037L147.762 143.754L150.241 141.012C154.881 135.949 156.832 129.568 155.725 123.135C153.616 110.795 141.487 102.99 129.463 106.26ZM140.01 115.172C144.967 117.439 148.079 122.607 147.498 127.617C147.077 131.15 145.916 133.154 142.33 136.635L139.219 139.588V150.24C139.219 161.051 139.008 162.422 137.162 163.846C136.108 164.689 133.893 164.689 132.838 163.846C130.993 162.422 130.782 161.051 130.782 150.24V139.588L127.67 136.635C124.084 133.154 122.924 131.15 122.502 127.617C121.922 122.607 125.034 117.439 129.991 115.172C133.366 113.59 136.635 113.59 140.01 115.172Z" fill="#AD69A7" fill-opacity="0.6"/>
</svg>
