<svg width="270" height="270" viewBox="0 0 270 270" fill="none" xmlns="http://www.w3.org/2000/svg">
<path d="M122.345 0.316476C116.755 0.949288 108.37 2.32038 104.415 3.2696C84.4286 7.91023 64.9696 17.5079 49.413 30.4278C43.8759 35.0684 43.2431 36.4922 45.4052 39.2344C46.2489 40.2891 46.9345 40.6055 48.5165 40.6055C50.2567 40.6055 51.206 40.0782 54.9501 36.9669C69.8739 24.6797 88.12 15.7149 107.315 11.2852C121.448 8.01568 141.804 7.54107 156.464 10.0723L159.733 10.6524L158.52 12.6036C154.354 19.1954 150.927 27.7911 149.134 36.0176C147.499 43.7696 147.499 57.0059 149.186 64.8633C155.04 92.1797 175.184 113.274 201.921 120.024C204.663 120.709 207.3 121.658 207.827 122.133C208.302 122.555 209.145 124.031 209.62 125.402C211.255 129.727 213.628 134.104 216.317 137.742C225.071 149.66 240.311 156.779 255.13 155.936L260.087 155.672L259.718 157.834C259.507 159.047 258.663 162.791 257.767 166.113C253.337 183.568 244.847 200.443 233.351 214.734C230.028 218.848 229.395 219.955 229.395 221.59C229.395 223.066 229.712 223.805 230.767 224.596C233.667 226.863 235.46 225.914 240.47 219.586C254.128 202.289 262.987 183.568 267.364 162.475C268.735 155.988 268.735 153.51 267.259 151.348C264.833 147.762 263.726 147.393 257.186 147.551C243.792 147.815 234.352 144.281 226.126 135.844C222.487 132.1 220.167 128.408 217.794 122.607C215.421 116.807 212.837 114.328 207.669 112.852C193.431 108.897 186.259 105.258 177.821 97.9278C166.852 88.3829 159.628 75.4102 157.097 60.7501C155.884 53.5782 155.831 48.4102 156.886 41.6602C158.309 32.379 160.683 26.0508 166.694 15.293C168.065 12.8145 168.276 12.0235 168.013 9.91412C167.433 4.64068 165.112 2.90046 156.727 1.47663C151.981 0.685616 147.499 0.421945 137.374 0.263741C130.149 0.158273 123.347 0.211007 122.345 0.316476Z" fill="#BA90B6" fill-opacity="0.3"/>
<path d="M211.73 19.7754C211.466 19.8809 207.775 20.9356 203.556 22.2012C194.485 24.8379 192.903 25.5762 190.056 28.5821C187.05 31.6934 185.837 34.3301 184.888 39.8672C183.095 50.045 183.991 54.3692 189.001 59.3262C192.323 62.5958 192.798 62.8067 203.819 66.8672C209.409 68.9239 214.366 68.8184 219.007 66.5508C222.593 64.7579 224.966 62.4375 226.601 59.0625C227.075 58.0606 228.499 53.1563 229.712 48.252C233.298 34.2774 232.823 30.2168 227.075 24.5215C224.65 22.0958 223.173 21.0938 221.011 20.4083C218.532 19.6172 213.259 19.2481 211.73 19.7754ZM219.429 29.1622C222.013 30.9024 223.595 33.4864 223.595 36.0704C223.542 38.918 219.798 53.7891 218.532 56.004C217.425 57.8497 213.681 60.1172 211.624 60.1172C209.62 60.1172 197.28 55.3184 195.593 53.9473C193.009 51.7325 192.323 49.834 192.64 45.9317C193.325 38.127 194.802 34.752 198.388 32.9063C201.13 31.4825 213.206 28.002 215.474 28.002C216.898 27.9493 218.269 28.3711 219.429 29.1622Z" fill="#CC46A6" fill-opacity="0.5"/>
<path d="M106.629 43.4004C104.731 45.4043 105.1 47.4609 107.948 50.625C110.953 54 113.168 55.0547 115.383 54.2637C116.965 53.7363 118.125 51.9433 118.125 50.0449C118.125 49.4121 116.701 47.4609 114.856 45.5625C112.061 42.6094 111.375 42.1875 109.688 42.1875C108.369 42.1875 107.42 42.5566 106.629 43.4004Z" fill="#BA90B6" fill-opacity="0.3"/>
<path d="M34.6998 44.8242C33.2232 45.7207 26.7896 53.7891 22.3599 60.4336C10.6529 77.9414 2.8482 99.5625 0.527892 120.867C-0.210389 128.197 -0.10492 144.281 0.73883 151.348C3.95563 176.924 13.817 200.285 29.9009 220.166C35.0162 226.494 45.5103 236.83 51.6802 241.629C71.983 257.344 95.8717 266.941 120.973 269.473C130.149 270.422 148.817 269.895 156.885 268.471C181.09 264.199 201.92 254.812 220.219 240.047C225.915 235.406 226.811 233.561 224.596 230.766C223.805 229.711 223.067 229.395 221.59 229.395C219.956 229.395 218.848 230.027 214.629 233.402C191.743 251.859 164.321 261.562 135.37 261.562C116.28 261.562 100.512 258.346 84.1119 251.016C68.2388 244.002 56.1627 235.512 43.981 222.961C24.0474 202.342 12.4459 177.715 8.91266 148.553C7.96344 140.748 8.54352 122.133 9.96735 114.17C13.9224 92.3379 23.0455 72.2988 36.8091 55.1601C40.0259 51.2051 40.606 50.2031 40.606 48.4629C40.606 45.3516 37.3365 43.2949 34.6998 44.8242Z" fill="#CC46A6" fill-opacity="0.5"/>
<path d="M252.334 47.4081C247.852 49.5175 245.109 53.9472 245.109 59.1679C245.109 71.455 261.352 76.0956 268.207 65.7597C269.895 63.1757 270.527 57.7968 269.473 54.58C268.629 51.9433 265.518 48.5683 262.881 47.4081C260.086 46.0898 255.129 46.1425 252.334 47.4081ZM260.35 56.0038C262.512 58.0077 261.773 61.6991 259.031 62.6484C257.238 63.2812 254.549 62.3319 253.969 60.9081C252.334 56.5839 257.027 52.8925 260.35 56.0038Z" fill="#CC46A6" fill-opacity="0.5"/>
<path d="M125.614 70.8751C122.028 74.6192 121.501 76.4122 123.399 78.4688C125.878 81.1055 128.567 80.3672 132.575 75.8848C134.315 73.9864 135.001 72.7208 135.001 71.6133C135.001 69.4512 132.892 67.5001 130.624 67.5001C129.095 67.5001 128.356 68.0274 125.614 70.8751Z" fill="#BA90B6" fill-opacity="0.3"/>
<path d="M70.1379 72.457C64.1789 74.1445 59.3801 78.205 56.7434 83.8476C55.5305 86.4843 55.1086 88.1718 54.9504 91.4941C54.5813 98.2968 56.6906 103.676 61.3313 107.947C69.8215 115.805 82.6359 115.594 90.7043 107.578C101.884 96.3457 96.9797 76.9922 81.7922 72.5625C78.4172 71.5605 73.5129 71.5605 70.1379 72.457ZM80.9484 81.4218C86.3801 83.9004 89.3332 89.7011 88.0676 95.291C86.7492 101.197 81.6867 105.205 75.675 105.152C71.7727 105.152 68.925 103.781 66.2355 100.617C57.6926 90.6504 68.9777 75.832 80.9484 81.4218Z" fill="#AD69A7" fill-opacity="0.6"/>
<path d="M231.874 79.8925C227.708 81.4746 222.434 84.6386 221.221 86.2207C217.477 91.0722 217.372 94.9746 220.8 103.043C224.544 111.955 225.704 113.537 229.923 115.436C234.141 117.334 239.098 116.754 242.79 113.853C245.216 111.955 252.176 103.307 253.284 100.775C254.655 97.664 254.339 92.8125 252.546 89.6484C251.333 87.4863 245.005 82.2128 241.471 80.4199C239.257 79.2597 234.247 78.9433 231.874 79.8925ZM240.839 90.2285C245.11 93.498 245.69 94.1836 245.743 96.082C245.743 97.5058 242.842 101.461 238.413 106.102C236.409 108.264 234.616 108.633 232.718 107.314C231.505 106.471 226.759 96.082 226.759 94.2363C226.759 93.5507 227.286 92.4433 227.866 91.8105C229.132 90.4394 234.932 87.539 236.356 87.539C236.831 87.539 238.887 88.7519 240.839 90.2285Z" fill="#CC46A6" fill-opacity="0.5"/>
<path d="M126.511 101.936C116.017 105.891 115.278 120.287 125.298 125.297C128.04 126.615 133.472 126.668 136.108 125.35C140.433 123.188 143.439 118.547 143.439 113.906C143.439 109.424 140.485 104.572 136.425 102.516C134.21 101.356 128.884 101.039 126.511 101.936ZM133.261 110.742C135.634 112.957 135.159 116.438 132.312 117.598C129.306 118.863 125.878 115.858 126.827 112.852C127.355 111.217 129.253 109.688 130.782 109.688C131.521 109.688 132.681 110.162 133.261 110.742Z" fill="#AD69A7" fill-opacity="0.6"/>
<path d="M43.5593 127.67C41.5027 129.252 41.7664 131.52 44.5613 137.057C46.8816 141.697 48.4109 143.438 50.2039 143.438C51.9441 143.438 53.7371 142.225 54.3171 140.59C54.8445 139.113 54.6336 138.428 52.2078 133.471C50.7312 130.465 49.0964 127.67 48.6218 127.301C47.3035 126.246 45.1414 126.404 43.5593 127.67Z" fill="#BA90B6" fill-opacity="0.3"/>
<path d="M98.35 140.537C96.0297 142.805 96.5043 144.703 100.354 148.553C102.938 151.137 104.045 151.875 105.258 151.875C108.633 151.875 110.532 148.658 108.95 145.652C108.528 144.809 106.946 143.016 105.416 141.645C102.252 138.797 100.354 138.48 98.35 140.537Z" fill="#BA90B6" fill-opacity="0.3"/>
<path d="M166.799 141.855C163.53 143.49 161.315 144.914 160.893 145.705C159.469 148.342 161.473 151.875 164.374 151.875C166.114 151.875 175.975 146.812 176.661 145.6C178.032 142.963 176.081 139.219 173.286 139.219C172.6 139.219 169.647 140.379 166.799 141.855Z" fill="#BA90B6" fill-opacity="0.3"/>
<path d="M79.893 160.998C67.5004 164.162 63.3344 179.982 72.4574 189.105C80.684 197.332 94.1313 195.117 99.2465 184.729C100.723 181.67 100.987 180.668 100.987 177.188C100.934 174.076 100.67 172.652 99.6156 170.332C96.1352 162.896 87.8031 158.994 79.893 160.998ZM87.8559 169.857C91.8637 171.756 93.6039 176.027 92.0219 180.088C90.7035 183.621 88.1723 185.361 84.3227 185.361C79.2602 185.361 76.2016 182.303 76.2016 177.188C76.2016 173.443 77.309 171.65 80.684 169.91C83.5844 168.486 85.0082 168.434 87.8559 169.857Z" fill="#AD69A7" fill-opacity="0.6"/>
<path d="M204.769 160.945C204.136 161.262 203.345 162.316 202.976 163.318C202.448 165.006 202.606 165.533 204.769 170.068C206.087 172.758 207.669 175.5 208.249 176.08C210.675 178.506 215.157 176.607 215.157 173.18C215.157 170.965 210.938 162.316 209.251 161.156C207.88 160.207 206.456 160.154 204.769 160.945Z" fill="#BA90B6" fill-opacity="0.3"/>
<path d="M160.418 169.33C146.971 171.967 139.588 187.365 145.811 199.494C149.766 207.141 157.096 211.307 165.85 210.832C181.934 209.988 190.951 192.164 182.25 178.506C179.086 173.602 174.235 170.438 168.223 169.277C165.059 168.697 163.635 168.697 160.418 169.33ZM168.17 178.031C173.76 179.666 177.557 185.15 177.029 190.951C176.713 194.379 175.764 196.436 173.391 198.809C168.75 203.449 161.631 203.766 156.727 199.547C152.508 195.961 151.031 191.057 152.666 186.152C153.879 182.461 157.201 179.086 160.682 178.031C163.951 177.029 164.848 177.029 168.17 178.031Z" fill="#AD69A7" fill-opacity="0.6"/>
<path d="M108.212 209.039C105.575 210.357 102.938 211.887 102.358 212.467C99.9325 214.893 101.831 219.375 105.259 219.375C107.473 219.375 116.122 215.156 117.282 213.469C118.864 211.254 117.915 208.143 115.331 207.246C113.222 206.508 113.643 206.402 108.212 209.039Z" fill="#BA90B6" fill-opacity="0.3"/>
<path d="M150.24 228.393C148.395 229.078 147.656 230.871 147.656 234.615C147.656 238.676 148.922 240.469 151.875 240.469C154.934 240.469 156.094 238.729 156.094 234.193C156.094 231.346 155.883 230.396 155.039 229.5C154.406 228.867 153.721 228.34 153.457 228.34C153.246 228.34 152.719 228.234 152.297 228.129C151.928 227.971 150.979 228.129 150.24 228.393Z" fill="#BA90B6" fill-opacity="0.3"/>
</svg>
