<svg width="270" height="271" viewBox="0 0 270 271" fill="none" xmlns="http://www.w3.org/2000/svg">
<g clip-path="url(#clip0)">
<path d="M7.11815 1.39633C4.42869 2.60922 2.21385 4.82407 1.00096 7.51352C0.104476 9.46469 -0.000992543 11.6268 -0.000992543 38.2577C-0.000992543 70.162 -0.159195 68.7909 3.58494 72.535C6.95994 75.8573 7.75096 76.0155 22.833 76.2264C30.2685 76.3319 36.3857 76.5956 36.3857 76.7538C36.3857 76.9647 35.9638 78.7577 35.4365 80.8143C34.5928 84.0311 34.3291 84.5057 33.1689 84.6639C29.8467 85.1385 28.2119 89.7264 30.6377 91.9413C31.6396 92.8377 32.7998 92.9432 41.1846 93.1014L50.5713 93.2596L50.7295 110.029L50.8877 126.799L52.4697 129.383C53.4717 130.965 55.0537 132.547 56.6357 133.549L59.2197 135.131L95.0263 135.289L130.78 135.447V150.846V166.244L116.964 171.254C109.212 174.049 102.778 176.685 102.198 177.265C100.933 178.637 100.985 181.326 102.304 182.75C104.255 184.859 104.624 184.754 121.183 178.795L134.999 173.732L155.724 181.273C167.062 185.387 176.554 188.92 176.765 189.131C177.239 189.553 175.921 196.988 174.286 203.474C169.698 221.351 161.577 236.17 149.237 248.984C144.438 253.941 136.265 260.849 135.104 260.902C133.206 260.902 120.603 249.564 115.276 243.025C103.517 228.576 94.7627 207.482 93.0752 189.447C92.917 187.39 92.4951 185.123 92.1787 184.332C91.124 181.537 86.747 181.168 85.0595 183.752C83.0556 186.81 86.3779 205.109 91.3349 218.187C98.9814 238.332 112.587 255.945 129.937 268.18C134.999 271.765 136.845 271.238 146.073 263.592C160.892 251.357 171.913 235.959 178.663 218.187C183.567 205.215 186.942 186.81 184.991 183.805C184.306 182.803 179.401 180.851 161.683 174.418L139.218 166.244V150.846V135.447L174.972 135.289L210.778 135.131L213.362 133.549C214.944 132.547 216.526 130.965 217.528 129.383L219.11 126.799L219.269 105.81L219.427 84.8221L240.099 84.6639L260.823 84.5057L263.407 83.1873C265.042 82.2909 266.677 80.867 267.89 79.2323L269.735 76.6483L269.894 69.16C270.052 62.1463 269.999 61.5663 268.997 60.5643C268.101 59.6678 267.204 59.4569 264.726 59.4569H261.561V34.5135C261.561 11.5213 261.456 9.46469 260.56 7.51352C259.347 4.82407 257.132 2.60922 254.442 1.39633C252.438 0.499847 250.065 0.394379 215.155 0.394379C178.663 0.394379 177.925 0.394379 175.868 1.5018C174.708 2.08188 172.968 3.40024 172.019 4.45493C168.854 7.98813 168.749 9.09555 168.749 35.5682V59.4569H165.849C163.37 59.4569 162.685 59.6678 161.577 60.828C160.206 62.1463 160.206 62.2518 160.417 68.8436C160.575 74.0116 160.839 75.9627 161.577 77.3866C162.895 79.9706 164.952 82.0272 167.431 83.3456C169.487 84.453 170.173 84.5057 190.265 84.6639L210.936 84.8221V104.281C210.936 114.933 210.778 124.109 210.62 124.584C209.671 127.01 212.044 126.957 134.999 126.957C57.9541 126.957 60.3271 127.01 59.3779 124.584C59.2197 124.109 59.0615 116.832 59.0615 108.447V93.2069H67.7627C77.1494 93.2069 78.6787 92.8905 79.6279 90.5702C80.7353 87.828 78.9424 84.7694 76.1474 84.7694C75.1982 84.7694 74.8818 84.1893 74.1435 81.4471C73.6162 79.6541 73.0888 77.7557 72.9834 77.2284C72.7197 76.3846 73.5635 76.3319 85.3232 76.3319C99.4033 76.3319 101.987 75.91 105.257 73.0623C106.259 72.1659 107.63 70.4256 108.263 69.2655C109.423 67.1561 109.423 66.7342 109.581 39.4706C109.739 8.83188 109.687 8.0936 106.417 4.50766C105.468 3.45297 103.728 2.08188 102.567 1.5018C100.511 0.394379 99.8779 0.394379 54.8428 0.394379C11.706 0.394379 9.12205 0.447113 7.11815 1.39633ZM98.0322 8.88461C101.196 9.99204 101.249 10.4666 101.249 31.7713V51.0194H64.3349C28.1064 51.0194 27.4209 51.0194 26.3662 52.0741C24.9951 53.4452 24.9951 56.2928 26.3135 57.9276L27.3154 59.1932L64.3349 59.3514L101.354 59.4569L101.144 62.41C100.985 64.4666 100.563 65.6795 99.7197 66.4706L98.5595 67.6307L55.6338 67.7889C7.48729 67.9471 9.49119 68.0526 8.48924 64.3612C8.17284 63.2538 7.90916 61.7245 7.90916 60.9862C7.90916 59.6678 8.06737 59.5623 11.0732 59.3514C14.501 59.0877 16.1885 58.0331 16.3467 56.0291C16.7158 52.3377 15.3447 51.0194 11.0732 51.0194H7.85643L8.01463 31.2967L8.17284 11.5741L9.43846 10.203C10.124 9.46469 11.1787 8.77914 11.8115 8.67368C12.3916 8.56821 31.6924 8.41 54.6318 8.35727C83.9521 8.30453 96.8193 8.46274 98.0322 8.88461ZM251.753 9.83383C252.913 10.9413 253.124 11.5741 253.124 14.2108V17.2694H215.155H177.186V14.8963C177.186 13.6307 177.503 11.9432 177.819 11.1522C179.138 8.30453 178.821 8.30453 216.052 8.46274L250.382 8.56821L251.753 9.83383ZM253.124 42.5819V59.4569H224.964C198.227 59.4569 196.751 59.5096 195.591 60.4588C193.956 61.7772 193.903 64.8358 195.538 66.4706L196.751 67.6307L229.394 67.7889L262.089 67.8944V69.3709C262.089 70.162 261.825 71.6913 261.509 72.7459C260.507 76.5428 262.985 76.3846 214.628 76.2264L171.438 76.0682L170.278 74.9081C169.435 74.0643 169.013 72.9041 168.854 70.8475L168.644 67.8944H175.288C183.936 67.8944 185.624 67.1561 185.624 63.2538C185.624 62.5155 185.097 61.3553 184.464 60.6698C183.515 59.6678 182.776 59.4569 180.245 59.4569H177.186V42.5819V25.7069H215.155H253.124V42.5819ZM65.0205 80.1288C65.5478 82.2381 65.917 84.1366 65.917 84.3475C65.917 84.6112 60.8017 84.7694 54.5263 84.7694C43.9795 84.7694 43.1885 84.7166 43.4521 83.8202C43.6103 83.3456 43.9795 81.869 44.2959 80.5506C44.6123 79.2323 44.9814 77.7557 45.1396 77.2284C45.4033 76.4373 46.2998 76.3319 54.79 76.3319H64.124L65.0205 80.1288Z" fill="#CC46A6" fill-opacity="0.5"/>
<path d="M142.014 210.91L131.309 221.562L124.822 215.129C118.916 209.328 118.125 208.695 116.385 208.695C114.117 208.695 112.324 210.646 112.324 213.072C112.324 214.443 113.537 215.92 120.287 222.722C124.717 227.152 128.988 231.054 129.779 231.424C130.939 231.898 131.678 231.898 132.785 231.424C133.629 231.054 139.799 225.254 146.496 218.556C157.148 207.851 158.73 206.058 158.73 204.635C158.73 202.156 156.938 200.258 154.617 200.258C152.877 200.258 151.98 200.996 142.014 210.91Z" fill="#AD69A7" fill-opacity="0.6"/>
</g>
<defs>
<clipPath id="clip0">
<rect y="0.394287" width="270" height="270" fill="white"/>
</clipPath>
</defs>
</svg>
