<svg width="270" height="220" viewBox="0 0 270 220" fill="none" xmlns="http://www.w3.org/2000/svg">
<path d="M10.1774 1.43555C6.96061 2.64844 3.2692 6.07617 1.47623 9.3457L0.263341 11.666L0.105137 109.066C-0.000331312 205.781 -0.00033129 206.467 1.05436 209.314C2.31998 212.742 5.85318 216.486 9.38639 218.227C11.8649 219.439 11.9176 219.439 36.1755 219.598C59.3786 219.703 60.5387 219.703 61.7516 218.754C63.3864 217.383 63.4391 214.324 61.8044 212.689C60.6442 211.529 60.5387 211.529 37.2829 211.266C15.1872 211.002 13.8688 210.949 12.1813 209.947C11.1794 209.367 9.91373 207.943 9.28092 206.783L8.1735 204.674L8.01529 127.787L7.90982 50.9531H135H262.09L261.984 127.787L261.826 204.674L260.718 206.783C260.086 207.943 258.82 209.367 257.818 209.947C256.131 210.949 254.812 211.002 232.716 211.266C209.461 211.529 209.355 211.529 208.195 212.689C206.56 214.324 206.613 217.383 208.248 218.754C209.461 219.703 210.621 219.703 233.824 219.598C258.082 219.439 258.134 219.439 260.613 218.227C264.146 216.486 267.679 212.742 268.945 209.314C270 206.467 270 205.781 269.894 109.066L269.736 11.666L268.523 9.3457C266.677 5.9707 263.039 2.64844 259.664 1.43555C256.763 0.328125 256.711 0.328125 134.841 0.380859C14.0797 0.380859 12.8669 0.380859 10.1774 1.43555ZM257.66 9.87305C258.609 10.4531 259.927 11.8242 260.613 12.8789C261.773 14.7773 261.826 15.3047 261.984 28.6465L262.195 42.5156H135H7.80436L8.01529 28.6465C8.1735 15.3047 8.22623 14.7773 9.38639 12.8789C10.0192 11.8242 11.3376 10.4531 12.2868 9.87305L13.9743 8.76562H134.947H255.92L257.66 9.87305Z" fill="#CC46A6" fill-opacity="0.5"/>
</svg>
