<svg width="271" height="271" viewBox="0 0 271 271" fill="none" xmlns="http://www.w3.org/2000/svg">
<g clip-path="url(#clip0)">
<path d="M132.213 1.90236C131.264 3.06252 131.105 4.06447 131.105 7.96682V12.5547L127.045 11.2891C124.777 10.6035 122.404 10.0235 121.719 10.0235C120.031 10.0235 117.922 12.291 117.922 14.084C117.922 16.668 119.188 17.7754 123.986 19.3047L128.416 20.7813L127.203 22.3633C122.932 28.0059 122.193 30.6426 124.25 32.6992C125.305 33.7539 127.572 34.0703 129.207 33.4375C129.682 33.2793 131.105 31.5918 132.424 29.7461C133.742 27.9004 135.061 26.3711 135.324 26.3711C135.588 26.3711 136.906 27.9004 138.225 29.7461C139.543 31.5918 140.967 33.2793 141.441 33.4375C143.076 34.0703 145.344 33.7539 146.398 32.6992C148.455 30.6426 147.717 28.0059 143.445 22.3633L142.232 20.7813L146.662 19.3047C151.461 17.7754 152.727 16.668 152.727 14.084C152.727 12.291 150.617 10.0235 148.93 10.0235C148.244 10.0235 145.871 10.6035 143.656 11.2891L139.543 12.5547V7.96682C139.543 2.21877 138.594 0.531269 135.324 0.531269C133.742 0.531269 133.057 0.847675 132.213 1.90236Z" fill="#AD69A7" fill-opacity="0.6"/>
<path d="M50.1582 35.4414C48.1016 36.5488 47.7852 37.498 47.7852 42.2968C47.7852 44.8281 47.627 46.9374 47.416 46.9374C47.1523 46.9374 45.1484 46.3574 42.9336 45.6191C39.7168 44.6171 38.5566 44.4589 37.3965 44.8808C35.6035 45.5664 34.6543 46.832 34.6016 48.5722C34.6016 50.9453 36.2891 52.4218 40.6133 53.7929C42.8281 54.4785 44.6211 55.2167 44.6211 55.4804C44.6211 55.6913 43.5664 57.3788 42.248 59.1718C40.1914 61.914 39.8223 62.705 39.9805 64.498C40.0859 66.08 40.5078 66.871 41.5625 67.662C43.8301 69.3495 45.9395 68.4531 49.0508 64.3398C50.4746 62.4413 51.793 60.9121 52.0039 60.9121C52.2148 60.9121 53.5332 62.4413 54.957 64.3398C58.0684 68.4531 60.1777 69.3495 62.4453 67.662C63.5 66.871 63.9219 66.08 64.0273 64.498C64.1855 62.705 63.8164 61.914 61.7598 59.1718C60.4414 57.3788 59.3867 55.6913 59.3867 55.4804C59.3867 55.2167 61.1797 54.4785 63.3945 53.7929C67.7188 52.4218 69.4062 50.9453 69.4062 48.5722C69.3535 46.832 68.4043 45.5664 66.6113 44.8808C65.4512 44.4589 64.291 44.6171 61.0742 45.6191C58.8594 46.3574 56.8555 46.9374 56.6445 46.9374C56.3809 46.9374 56.2227 44.8808 56.2227 42.2968C56.1699 37.5507 55.8535 36.5488 53.7441 35.4414C52.3203 34.6503 51.5293 34.6503 50.1582 35.4414Z" fill="#BA90B6" fill-opacity="0.3"/>
<path d="M216.799 35.4413C214.795 36.6015 214.479 37.6035 214.426 42.2968C214.426 44.8808 214.215 46.9374 214.004 46.9374C213.74 46.9374 212.158 46.4628 210.418 45.8828C208.73 45.2499 206.516 44.7753 205.566 44.7226C203.404 44.6171 201.242 46.5683 201.242 48.5195C201.242 50.9453 202.93 52.4218 207.254 53.7929C209.469 54.4785 211.262 55.2167 211.262 55.4804C211.262 55.6913 210.207 57.3788 208.889 59.1718C206.832 61.914 206.463 62.705 206.621 64.498C206.727 66.08 207.148 66.871 208.203 67.662C210.471 69.3495 212.58 68.4531 215.691 64.3398C217.115 62.4413 218.434 60.9121 218.645 60.9121C218.855 60.9121 220.174 62.4413 221.598 64.3398C224.709 68.4531 226.818 69.3495 229.086 67.662C230.141 66.871 230.562 66.08 230.668 64.498C230.826 62.705 230.457 61.914 228.4 59.1718C227.082 57.3788 226.027 55.6913 226.027 55.4804C226.027 55.2167 227.82 54.4785 230.035 53.7929C234.359 52.4218 236.047 50.9453 236.047 48.5722C235.994 46.832 235.045 45.5663 233.252 44.8808C232.092 44.4589 230.932 44.6171 227.715 45.6191C225.5 46.3574 223.496 46.9374 223.285 46.9374C223.021 46.9374 222.863 44.9335 222.863 42.5078C222.863 37.2343 222.652 36.6015 220.701 35.5996C218.961 34.6503 218.223 34.6503 216.799 35.4413Z" fill="#BA90B6" fill-opacity="0.3"/>
<path d="M126.623 64.3399C110.065 66.8184 96.7755 73.3047 85.4376 84.4317C68.088 101.412 60.5997 126.725 65.9786 150.402C67.5079 157.258 70.1973 164.271 71.6739 165.326C74.0997 167.014 77.4747 165.801 78.1075 163.059C78.3184 162.057 77.8966 160.158 76.8946 157.363C74.9962 152.195 73.7305 147.186 73.1505 142.703L72.7813 139.223H83.2227H93.6641V141.49C93.6641 147.133 95.9845 161.16 98.0411 167.752L98.7794 170.23L95.8263 171.549C94.1915 172.287 91.7657 173.553 90.3419 174.396L87.8634 175.873L86.6505 174.449C84.3302 171.654 81.3243 171.443 79.4259 173.922C77.7911 175.926 78.1075 177.402 80.9552 180.725C98.6739 201.766 126.781 210.678 153.518 203.717C190.221 194.172 213.055 156.625 204.67 119.605C203.141 112.75 200.451 105.736 198.975 104.682C197.287 103.521 195.072 103.68 193.596 105.209C191.908 106.844 191.961 107.635 193.807 112.697C195.652 117.813 196.918 122.822 197.498 127.305L197.867 130.785H187.531H177.195L176.563 123.771C175.877 116.389 174.4 108.426 172.713 102.889C172.186 101.043 171.711 99.3555 171.711 99.1445C171.711 98.8809 174.031 97.4571 176.826 95.9805L181.941 93.2383L183.576 95.084C185.58 97.4043 186.899 98.0899 188.744 97.7207C190.484 97.4043 192.277 95.2422 192.277 93.6074C192.277 90.8653 182.469 80.9512 174.717 75.8887C166.279 70.3516 158.158 66.9766 148.455 65.1309C143.182 64.1289 131.053 63.6543 126.623 64.3399ZM131.106 84.9063V97.0352H129.154C124.988 97.0352 110.539 94.1875 110.539 93.3965C110.539 92.6055 114.969 85.5918 117.342 82.586C121.297 77.6289 126.096 74.2012 131 72.8301C131.053 72.7774 131.106 78.209 131.106 84.9063ZM145.186 75.2559C148.35 77.2598 150.828 79.4746 153.307 82.586C155.68 85.5918 160.109 92.6055 160.109 93.3965C160.109 94.1875 145.66 97.0352 141.547 97.0352H139.543V84.9063V72.8301L141.6 73.5684C142.76 73.9375 144.342 74.7285 145.186 75.2559ZM107.481 81.6367C106.109 83.6406 104.422 86.4356 103.736 87.9121L102.524 90.6016L100.783 89.8633C99.8341 89.4942 98.1993 88.6504 97.1446 88.0176L95.2462 86.9102L97.461 85.1172C100.15 83.0078 108.43 78.0508 109.326 78.0508C109.695 78.0508 108.852 79.6856 107.481 81.6367ZM165.541 80.3184C167.809 81.5313 170.92 83.4824 172.502 84.6426C175.824 87.0684 175.772 87.1211 170.92 89.4414L168.336 90.6543L166.438 87.0684C165.383 85.1172 163.695 82.2696 162.588 80.793C161.533 79.2637 160.795 78.0508 161.059 78.0508C161.27 78.0508 163.274 79.0528 165.541 80.3184ZM93.9806 95.9805C96.5645 97.2989 98.7794 98.4063 98.8848 98.5117C99.0431 98.5645 98.6212 100.463 97.9356 102.73C96.0372 109.322 94.7716 116.336 94.086 123.771L93.4532 130.785H83.1173H72.7813L73.2032 127.252C74.4688 116.652 79.4786 104.682 86.1759 96.2442C87.4415 94.6094 88.7071 93.3438 88.9181 93.4492C89.129 93.5547 91.4493 94.6621 93.9806 95.9805ZM112.016 102.836C116.815 104.102 125.674 105.473 128.891 105.473H131.106V118.129V130.785H116.551H101.943L102.313 125.986C102.945 117.443 106.32 101.781 107.481 101.781C107.744 101.781 109.748 102.256 112.016 102.836ZM165.014 106.896C166.754 113.383 167.861 119.816 168.336 125.986L168.705 130.785H154.098H139.543V118.129V105.473H142.127C145.133 105.473 156.207 103.627 159.582 102.572C163.59 101.359 163.537 101.254 165.014 106.896ZM131.106 150.982V162.742L124.725 163.375C121.191 163.744 115.707 164.746 112.543 165.537C109.379 166.328 106.69 166.855 106.584 166.697C106.531 166.539 105.793 163.902 105.055 160.844C103.578 155.043 102.154 145.34 102.102 141.438V139.223H116.604H131.106V150.982ZM168.547 141.438C168.494 145.34 167.07 155.043 165.594 160.844C164.856 163.902 164.117 166.539 164.065 166.697C163.959 166.855 161.27 166.328 158.106 165.537C154.941 164.746 149.457 163.744 145.924 163.375L139.543 162.742V150.982V139.223H154.045H168.547V141.438ZM197.709 140.91C196.813 148.926 194.598 156.361 190.906 163.48C188.217 168.701 183.893 175.135 182.785 175.504C182.522 175.609 180.676 174.713 178.725 173.553C176.774 172.393 174.4 171.18 173.504 170.863L171.816 170.283L172.608 167.805C174.664 161.16 176.984 147.133 176.984 141.49V139.223H187.426H197.92L197.709 140.91ZM131.106 184.311V197.178L129.049 196.439C124.725 194.91 120.506 191.535 116.656 186.525C113.176 181.885 109.695 175.662 110.328 175.135C111.594 174.027 123.934 171.549 128.891 171.443L131.106 171.391V184.311ZM148.244 172.182C153.729 173.025 159.529 174.449 160.32 175.135C160.953 175.662 157.473 181.885 153.992 186.525C150.143 191.535 145.924 194.91 141.6 196.439L139.543 197.178V184.311V171.391H141.283C142.18 171.391 145.344 171.76 148.244 172.182ZM103.473 181.516C104.316 183.309 106.109 186.367 107.481 188.371C108.852 190.322 109.801 191.957 109.643 191.957C108.324 191.957 99.3595 186.473 95.5098 183.361L93.9806 182.043L97.6192 180.197C99.6759 179.143 101.469 178.299 101.627 178.246C101.785 178.246 102.629 179.723 103.473 181.516ZM172.766 180.092C174.822 181.094 176.457 182.043 176.457 182.148C176.457 183.045 162.693 191.957 161.322 191.957C160.953 191.957 161.797 190.322 163.168 188.371C164.539 186.367 166.332 183.309 167.176 181.516C168.02 179.723 168.811 178.246 168.916 178.246C169.022 178.246 170.762 179.09 172.766 180.092Z" fill="#CC46A6" fill-opacity="0.5"/>
<path d="M16.1445 118.498C13.877 119.342 13.5078 120.238 13.5078 125.354C13.5078 128.043 13.4023 130.258 13.2441 130.258C13.0859 130.258 10.9766 129.678 8.49805 128.939C2.43359 127.199 0.324219 128.043 0.324219 132.314C0.324219 134.635 1.80078 135.848 6.23047 137.166C8.33984 137.799 10.1855 138.379 10.291 138.484C10.3965 138.537 9.23633 140.33 7.75977 142.439C6.2832 144.549 5.07031 146.711 5.07031 147.186C5.07031 148.926 6.23047 150.772 7.75977 151.404C10.1328 152.354 11.9785 151.246 14.9316 147.186L17.5156 143.6L20.0469 147.133C21.4707 149.189 23.2109 150.982 24.0547 151.352C26.9023 152.512 29.8027 150.508 29.8555 147.344C29.8555 146.764 28.6426 144.549 27.166 142.439C25.6895 140.33 24.582 138.537 24.6875 138.484C24.7402 138.432 26.3223 137.904 28.1152 137.377C29.9609 136.85 32.123 136.006 33.0195 135.479C34.3906 134.635 34.6016 134.16 34.6016 132.209C34.6016 129.889 33.8105 128.676 31.8594 127.99C31.1211 127.727 27.7988 128.465 23.1055 129.941C22.1562 130.258 22.0508 129.994 21.8398 125.512C21.6816 121.662 21.418 120.555 20.5742 119.711C19.4668 118.604 17.3574 118.023 16.1445 118.498Z" fill="#AD69A7" fill-opacity="0.6"/>
<path d="M251.604 118.604C249.547 119.5 249.02 120.713 248.809 125.564C248.598 129.994 248.492 130.258 247.543 129.941C242.85 128.465 239.527 127.727 238.789 127.99C236.838 128.676 236.047 129.889 236.047 132.209C236.047 134.16 236.258 134.635 237.629 135.479C238.525 136.006 240.688 136.85 242.533 137.377C244.326 137.904 245.908 138.432 245.961 138.484C246.066 138.537 244.959 140.33 243.482 142.439C242.006 144.549 240.793 146.764 240.793 147.344C240.846 150.508 243.746 152.512 246.594 151.352C247.438 150.982 249.178 149.189 250.602 147.133L253.133 143.6L255.717 147.186C258.67 151.246 260.516 152.354 262.889 151.404C264.418 150.772 265.578 148.926 265.578 147.186C265.578 146.711 264.365 144.549 262.889 142.439C261.412 140.33 260.252 138.537 260.357 138.484C260.463 138.379 262.309 137.799 264.418 137.166C268.848 135.848 270.324 134.635 270.324 132.314C270.324 128.043 268.215 127.199 262.15 128.939C259.672 129.678 257.562 130.258 257.404 130.258C257.246 130.258 257.141 128.043 257.141 125.354C257.141 121.293 256.982 120.238 256.244 119.553C255.031 118.498 252.922 118.076 251.604 118.604Z" fill="#AD69A7" fill-opacity="0.6"/>
<path d="M50.1582 202.082C48.1543 203.242 47.8379 204.244 47.7852 208.937C47.7852 211.521 47.5742 213.578 47.3633 213.578C47.0996 213.578 45.5703 213.103 43.9355 212.576C41.0879 211.574 39.5059 211.31 37.6602 211.416C36.2891 211.521 34.6016 213.578 34.6016 215.213C34.6016 217.586 36.2891 219.062 40.6133 220.434C42.8281 221.119 44.6211 221.857 44.6211 222.121C44.6211 222.332 43.5664 224.019 42.248 225.812C40.1914 228.555 39.8223 229.346 39.9805 231.139C40.0859 232.721 40.5078 233.512 41.5625 234.303C43.8301 235.99 45.9395 235.094 49.0508 230.98C50.4746 229.082 51.793 227.553 52.0039 227.553C52.2148 227.553 53.5332 229.082 54.957 230.98C58.0684 235.094 60.1777 235.99 62.4453 234.303C63.5 233.512 63.9219 232.721 64.0273 231.191C64.1328 229.451 63.8164 228.607 61.7598 225.865C60.4414 224.019 59.3867 222.385 59.3867 222.121C59.3867 221.857 61.1797 221.119 63.3945 220.434C67.7188 219.062 69.4062 217.586 69.4062 215.16C69.4062 213.209 67.2441 211.258 65.082 211.363C64.1328 211.416 61.918 211.891 60.2305 212.523C58.4902 213.103 56.9082 213.578 56.6445 213.578C56.4336 213.578 56.2227 211.521 56.2227 208.937C56.1699 204.191 55.8535 203.189 53.7441 202.082C52.3203 201.291 51.5293 201.291 50.1582 202.082Z" fill="#BA90B6" fill-opacity="0.3"/>
<path d="M216.799 202.082C214.795 203.242 214.479 204.244 214.426 208.937C214.426 211.521 214.215 213.578 214.004 213.578C213.74 213.578 212.158 213.103 210.418 212.523C208.73 211.891 206.516 211.416 205.566 211.363C203.404 211.258 201.242 213.209 201.242 215.16C201.242 217.586 202.93 219.062 207.254 220.434C209.469 221.119 211.262 221.857 211.262 222.121C211.262 222.385 210.207 224.019 208.889 225.865C206.832 228.607 206.516 229.451 206.621 231.191C206.727 232.721 207.148 233.512 208.203 234.303C210.471 235.99 212.58 235.094 215.691 230.98C217.115 229.082 218.434 227.553 218.645 227.553C218.855 227.553 220.174 229.082 221.598 230.98C224.709 235.094 226.818 235.99 229.086 234.303C230.141 233.512 230.562 232.721 230.668 231.139C230.826 229.346 230.457 228.555 228.4 225.812C227.082 224.019 226.027 222.332 226.027 222.121C226.027 221.857 227.82 221.119 230.035 220.434C234.359 219.062 236.047 217.586 236.047 215.213C236.047 213.578 234.359 211.521 232.988 211.416C231.143 211.31 229.561 211.574 226.713 212.576C225.078 213.103 223.549 213.578 223.285 213.578C223.074 213.578 222.863 211.521 222.863 208.937C222.811 204.191 222.494 203.189 220.385 202.082C218.961 201.291 218.17 201.291 216.799 202.082Z" fill="#BA90B6" fill-opacity="0.3"/>
<path d="M132.213 237.625C131.264 238.785 131.105 239.787 131.105 243.637V248.277L127.15 247.012C124.936 246.326 122.562 245.746 121.824 245.746C119.979 245.746 117.922 247.961 117.922 249.965C117.922 252.285 119.768 253.709 124.461 255.133L128.469 256.293L126.465 259.088C123.723 262.779 123.195 263.834 123.195 265.732C123.195 267.895 124.83 269.477 127.045 269.477C129.102 269.477 130.314 268.527 132.898 264.836C134.006 263.359 135.061 262.094 135.324 262.094C135.588 262.094 136.643 263.359 137.75 264.836C140.334 268.527 141.547 269.477 143.656 269.477C145.818 269.477 147.453 267.895 147.453 265.732C147.453 263.834 146.926 262.779 144.184 259.088L142.18 256.293L146.188 255.133C150.881 253.709 152.727 252.285 152.727 249.965C152.727 247.961 150.67 245.746 148.824 245.746C148.086 245.746 145.713 246.326 143.498 247.012L139.543 248.277V243.637C139.543 237.941 138.594 236.254 135.324 236.254C133.742 236.254 133.057 236.57 132.213 237.625Z" fill="#AD69A7" fill-opacity="0.6"/>
</g>
<defs>
<clipPath id="clip0">
<rect x="0.324219" y="0.00390625" width="270" height="270" fill="white"/>
</clipPath>
</defs>
</svg>
