<svg width="270" height="270" viewBox="0 0 270 270" fill="none" xmlns="http://www.w3.org/2000/svg">
<g clip-path="url(#clip0)">
<path d="M56.6896 0.786452C38.549 4.79426 24.3107 18.2943 18.6154 36.6986C17.297 40.97 17.1915 42.0247 17.1915 50.304C17.1915 57.845 17.4025 59.9017 18.3517 63.3294C19.7755 68.5501 22.465 74.3509 25.629 79.0443C30.4806 86.3216 40.5001 94.39 48.1466 97.2376L50.6251 98.1869V125.398V152.609L49.0431 153.294C43.1368 155.931 40.5001 163.788 43.4532 170.011C44.9298 173.175 46.4064 174.599 49.5704 176.023C55.7931 178.87 63.2286 176.128 66.1818 169.906C67.6056 167.005 67.5529 161.679 66.0763 158.884C64.8107 156.564 61.9103 153.716 60.17 153.136C59.1154 152.82 59.0626 152.398 59.0626 146.492C59.0626 143.064 59.1681 140.216 59.3263 140.216C59.4845 140.216 60.7501 140.743 62.1212 141.376C65.338 142.853 89.4376 166.689 91.2833 170.275L92.549 172.648L92.7072 215.257C92.8654 262.824 93.0236 260.398 89.2267 261.505C87.9083 261.927 76.8341 262.033 53.42 261.927L19.6173 261.769L18.2462 260.503L16.8751 259.238V216.206V173.175L18.1407 170.538C19.09 168.587 22.2013 165.107 30.0587 157.355C35.9122 151.554 41.0275 146.122 41.4493 145.331C43.0841 142.22 40.131 138.476 36.8087 139.425C35.1212 139.9 14.0275 160.941 11.9181 164.21C8.27942 169.8 8.43762 167.322 8.43762 216.259C8.43762 265.038 8.27942 262.507 11.7599 266.199C15.504 270.101 13.3419 269.943 54.7911 269.943C91.4415 269.943 91.9689 269.943 94.2365 268.835C95.5021 268.255 97.1896 266.884 98.0861 265.829C101.356 261.874 101.25 263.351 101.25 216.945C101.25 190.577 101.039 173.544 100.723 171.804C99.5626 165.687 98.3497 164.105 83.6368 149.445C71.5607 137.368 69.4513 135.47 66.2872 133.941C64.3361 132.992 61.9103 132.095 60.9083 131.937L59.0626 131.62V116.064V100.507L63.7033 100.876C86.3263 102.617 106.998 89.1693 115.225 67.2845C115.752 65.9134 116.649 64.3841 117.281 63.9622C118.178 63.3294 124.295 63.224 158.309 63.224H198.281V71.9251C198.281 81.6283 198.598 82.9466 201.235 83.7904C203.397 84.5287 206.033 83.3685 206.508 81.4173L206.824 80.099H215.209H223.541L224.227 81.5228C225.229 83.6322 227.444 84.5814 229.447 83.7904C230.291 83.4212 231.24 82.6829 231.504 82.1556C231.82 81.6283 232.031 77.1986 232.031 72.2415V63.224H236.25H240.469V67.5482C240.469 72.4525 241.154 74.2454 243.317 75.2474C244.477 75.8275 245.057 75.8275 246.322 75.3529C248.537 74.4037 248.906 73.4017 248.906 68.0228V63.224L250.383 62.9076C257.66 61.3783 261.563 57.0013 261.563 50.304C261.563 46.5599 260.35 43.6595 257.819 41.2337C254.074 37.7005 257.818 37.9115 196.752 37.9115H141.381L140.326 39.2825C138.428 41.6556 139.272 44.8197 142.014 45.8216C143.068 46.1907 161.156 46.349 197.227 46.349H250.858L251.965 47.5618C253.547 49.2493 253.494 51.6224 251.754 53.2572L250.383 54.5228L183.094 54.7865C132.891 54.9974 115.383 55.2083 114.381 55.6829C111.85 56.7904 109.424 59.3744 108.158 62.2747C102.358 75.5111 97.8224 81.2064 88.8576 86.5326C81.6329 90.804 72.2462 93.1771 64.8634 92.4915C58.7462 91.9642 59.0626 92.2806 59.0626 87.3763C59.0626 83.5794 59.1681 83.2103 60.0118 83.5267C60.4865 83.7376 63.0704 84.0013 65.6544 84.1595C71.8771 84.5287 76.9923 83.4212 82.7931 80.5208C96.9259 73.4544 104.256 56.5794 99.879 41.2337C96.6622 29.9486 87.2228 20.8255 75.6212 17.8724C68.4493 16.0267 57.9025 16.8704 55.7931 19.5072C54.422 21.1419 54.5802 23.4622 56.215 25.0443C57.3224 26.2044 57.8497 26.3626 59.7482 26.099C66.2872 25.2025 69.9259 25.1497 73.3009 26.0462C78.1525 27.3118 81.4747 29.263 85.1661 32.9017C91.4943 39.2825 94.0783 48.0892 92.0216 55.9994C88.4357 69.7103 75.0939 78.2005 61.963 75.1419L59.3263 74.5619L59.1681 70.554L59.0099 66.5462L61.1193 65.9662C63.9669 65.0697 68.2384 61.1146 69.8204 57.7923C73.09 50.9369 71.4025 42.3411 65.9181 37.7005C62.2794 34.6419 60.2228 33.9564 54.8439 33.9564C49.0958 33.9564 46.67 34.8529 42.9259 38.5443C39.34 42.0247 38.2325 44.7669 38.2325 50.304C38.2325 54.2591 38.4435 55.472 39.4982 57.6341C41.1857 61.1146 44.297 64.0677 47.7775 65.7025L50.6251 66.9681V78.0423V89.1165L46.881 87.1126C41.9767 84.5287 35.4904 78.4115 32.1681 73.2962C18.2462 52.1497 26.2618 23.8314 49.3595 12.388C54.9493 9.64583 58.4825 8.80208 65.9708 8.53841C71.5607 8.32747 73.3009 8.43294 77.0451 9.38216C90.9669 12.9154 101.356 22.0384 106.787 35.4857C110.004 43.3431 113.221 45.7689 121.289 46.2435C126.668 46.5072 129.305 45.8743 130.201 43.9232C131.045 42.0247 130.94 40.8646 129.727 39.388C128.777 38.1224 128.303 38.0169 123.399 37.806C117.123 37.595 116.807 37.3841 114.486 31.6361C109.424 19.1907 99.4572 8.90755 87.6447 3.89778C80.7365 0.99739 77.5197 0.364577 68.5548 0.15364C62.4904 -0.00456333 59.4318 0.206374 56.6896 0.786452ZM59.1154 43.3431C61.6993 45.0306 63.4923 48.8802 63.0177 51.7279C62.2794 56.1048 56.9005 59.6908 52.84 58.5306C47.3029 56.9486 44.8243 51.2005 47.5138 46.349C49.7814 42.3411 55.424 40.8646 59.1154 43.3431ZM223.594 67.4427V71.6615H215.156H206.719V67.4427V63.224H215.156H223.594V67.4427ZM57.4279 161.468C59.2736 162.997 59.1154 166.425 57.0587 167.954C54.6857 169.8 50.6251 167.691 50.6251 164.632C50.6779 161.152 54.6857 159.306 57.4279 161.468Z" fill="#CC46A6" fill-opacity="0.5"/>
<path d="M51.3105 186.095C45.9844 187.202 40.9219 191.474 39.0762 196.431C38.2324 198.646 37.9688 200.544 37.9688 204.552C37.9688 210.827 39.1816 214.677 42.1875 217.947C45.2461 221.269 44.1914 222.798 37.2305 225.118C31.5352 227.017 29.584 228.124 27.8438 230.497C25.7871 233.187 25.3125 235.349 25.3125 241.413C25.3125 247.847 26.0508 249.904 28.9512 251.907L30.7969 253.12L55.0547 252.962C78.416 252.804 79.418 252.751 80.7891 251.749C83.3203 249.904 84.375 247.003 84.375 241.782C84.375 235.085 83.6367 232.818 80.4727 229.548C78.1523 227.228 77.1504 226.648 73.3008 225.382C64.9687 222.64 64.1777 221.743 67.1836 218.21C68.1855 216.997 69.3984 215.257 69.873 214.255C72.0879 209.562 72.1934 200.491 70.084 195.587C67.2363 188.943 58.5879 184.618 51.3105 186.095ZM56.9004 194.532C59.3262 195.218 62.1211 197.96 62.7539 200.333C64.1777 205.396 62.7012 211.355 59.4844 213.675C57.2695 215.31 53.2617 215.468 50.7305 214.044C47.5664 212.251 46.4062 209.773 46.4062 204.816C46.4062 198.857 47.8828 196.273 52.0488 194.743C54.5273 193.9 54.6855 193.9 56.9004 194.532ZM58.0078 225.066C59.4316 228.546 62.7539 230.866 69.3457 233.029C71.4551 233.714 73.6699 234.874 74.4609 235.718C75.7793 237.036 75.9375 237.511 75.9375 240.886V244.63H54.8438H33.75V240.781C33.75 238.249 34.0137 236.562 34.541 235.823C35.0156 235.138 37.125 234.083 40.1836 233.081C42.873 232.185 45.8262 230.972 46.7754 230.392C48.6211 229.284 51.6797 225.435 51.6797 224.222C51.6797 223.747 52.4707 223.536 54.5273 223.536C57.1641 223.536 57.375 223.642 58.0078 225.066Z" fill="#AD69A7" fill-opacity="0.6"/>
</g>
<defs>
<clipPath id="clip0">
<rect y="-0.057373" width="270" height="270" fill="white"/>
</clipPath>
</defs>
</svg>
