<svg width="271" height="271" viewBox="0 0 271 271" fill="none" xmlns="http://www.w3.org/2000/svg">
<g clip-path="url(#clip0)">
<path d="M132.85 2.26223C131.9 3.42238 131.742 4.42434 131.742 8.32668V12.9146L127.682 11.6489C125.414 10.9634 123.041 10.3833 122.355 10.3833C120.668 10.3833 118.559 12.6509 118.559 14.4439C118.559 17.0279 119.824 18.1353 124.623 19.6646L129.053 21.1411L127.84 22.7232C123.568 28.3657 122.83 31.0025 124.887 33.0591C125.941 34.1138 128.209 34.4302 129.844 33.7974C130.318 33.6392 131.742 31.9517 133.061 30.106C134.379 28.2603 135.697 26.731 135.961 26.731C136.225 26.731 137.543 28.2603 138.861 30.106C140.18 31.9517 141.604 33.6392 142.078 33.7974C143.713 34.4302 145.98 34.1138 147.035 33.0591C149.092 31.0025 148.354 28.3657 144.082 22.7232L142.869 21.1411L147.299 19.6646C152.098 18.1353 153.363 17.0279 153.363 14.4439C153.363 12.6509 151.254 10.3833 149.566 10.3833C148.881 10.3833 146.508 10.9634 144.293 11.6489L140.18 12.9146V8.32668C140.18 2.57863 139.23 0.891132 135.961 0.891132C134.379 0.891132 133.693 1.20754 132.85 2.26223Z" fill="#AD69A7" fill-opacity="0.6"/>
<path d="M50.7949 35.8012C48.7383 36.9086 48.4219 37.8579 48.4219 42.6567C48.4219 45.1879 48.2109 47.2973 48 47.2973C47.7363 47.2973 46.207 46.8227 44.5723 46.2954C41.7246 45.2934 40.1426 45.0297 38.2969 45.1352C36.9258 45.2407 35.2383 47.2973 35.2383 48.9321C35.2383 51.3051 36.9258 52.7817 41.25 54.1528C43.4648 54.8383 45.2578 55.5766 45.2578 55.8403C45.2578 56.0512 44.2031 57.7387 42.8848 59.5317C40.8281 62.2739 40.459 63.0649 40.6172 64.8579C40.7227 66.4399 41.1445 67.2309 42.1992 68.0219C44.4668 69.7094 46.5762 68.8129 49.6875 64.6996C51.1113 62.8012 52.4297 61.2719 52.6406 61.2719C52.8516 61.2719 54.1699 62.8012 55.5938 64.6996C58.7051 68.8129 60.8145 69.7094 63.082 68.0219C64.1367 67.2309 64.5586 66.4399 64.6641 64.8579C64.8223 63.0649 64.4531 62.2739 62.3965 59.5317C61.0781 57.7387 60.0234 56.0512 60.0234 55.8403C60.0234 55.5766 61.8164 54.8383 64.0312 54.1528C68.3555 52.7817 70.043 51.3051 70.043 48.8793C70.043 46.9282 67.8809 44.977 65.7188 45.0825C64.7695 45.1352 62.5547 45.6098 60.8672 46.2426C59.127 46.8227 57.5449 47.2973 57.2812 47.2973C57.0703 47.2973 56.8594 45.2407 56.8594 42.6567C56.8066 37.9106 56.4902 36.9086 54.3809 35.8012C52.957 35.0102 52.166 35.0102 50.7949 35.8012Z" fill="#BA90B6" fill-opacity="0.3"/>
<path d="M217.436 35.8012C215.432 36.9614 215.115 37.9633 215.062 42.6567C215.062 45.2407 214.852 47.2973 214.641 47.2973C214.377 47.2973 212.795 46.8227 211.055 46.2426C209.367 45.6098 207.152 45.1352 206.203 45.0825C204.041 44.977 201.879 46.9282 201.879 48.8793C201.879 51.3051 203.566 52.7817 207.891 54.1528C210.105 54.8383 211.898 55.5766 211.898 55.8403C211.898 56.0512 210.844 57.7387 209.525 59.5317C207.469 62.2739 207.1 63.0649 207.258 64.8579C207.363 66.4399 207.785 67.2309 208.84 68.0219C211.107 69.7094 213.217 68.8129 216.328 64.6996C217.752 62.8012 219.07 61.2719 219.281 61.2719C219.492 61.2719 220.811 62.8012 222.234 64.6996C225.346 68.8129 227.455 69.7094 229.723 68.0219C230.777 67.2309 231.199 66.4399 231.305 64.8579C231.463 63.0649 231.094 62.2739 229.037 59.5317C227.719 57.7387 226.664 56.0512 226.664 55.8403C226.664 55.5766 228.457 54.8383 230.672 54.1528C234.996 52.7817 236.684 51.3051 236.684 48.9321C236.684 47.2973 234.996 45.2407 233.625 45.1352C231.779 45.0297 230.197 45.2934 227.35 46.2954C225.715 46.8227 224.186 47.2973 223.922 47.2973C223.711 47.2973 223.5 45.2934 223.5 42.8676C223.5 37.5942 223.289 36.9614 221.338 35.9594C219.598 35.0102 218.859 35.0102 217.436 35.8012Z" fill="#BA90B6" fill-opacity="0.3"/>
<path d="M127.945 72.8735C122.461 74.2446 118.084 76.7231 114.023 80.731C107.326 87.4282 106.166 91.8052 106.535 108.469C106.799 117.856 106.904 119.122 108.223 122.866C109.594 126.979 112.336 131.831 113.971 133.202C115.289 134.256 115.236 141.112 113.971 142.694C113.443 143.327 108.381 145.752 102.211 148.336C89.291 153.715 87.498 154.717 85.0723 157.881C82.1719 161.678 81.6445 164.315 81.6445 174.651C81.6445 183.299 81.6973 183.774 83.0156 186.411C83.7539 187.94 85.1777 189.786 86.0742 190.471C89.9238 193.372 89.6074 193.372 124.939 193.372C148.195 193.372 157.898 193.213 158.848 192.792C161.379 191.631 161.643 187.465 159.27 185.672C158.584 185.092 151.729 184.987 126.047 184.934C102.475 184.934 93.4043 184.776 92.5605 184.301C90.293 183.141 90.1348 182.35 90.082 174.229C90.082 167.479 90.2402 166.161 91.1367 164.42C92.4551 161.731 93.5625 161.151 106.324 155.877C112.23 153.452 117.873 150.762 118.928 149.918C121.09 148.125 123.305 143.801 123.305 141.27C123.305 139.952 123.516 139.583 124.307 139.583C125.73 139.583 127.523 137.157 127.523 135.206C127.523 134.151 127.049 133.254 125.889 132.252C120.457 127.612 118.928 125.977 117.504 123.024C115.289 118.489 114.709 114.006 114.973 103.196C115.236 92.2271 115.816 90.645 120.668 86.1626C125.045 82.1021 128.789 80.7837 135.961 80.7837C143.133 80.7837 146.877 82.1021 151.254 86.1626C156.105 90.645 156.686 92.2271 156.949 103.196C157.371 120.229 156.053 123.709 146.033 132.252C144.873 133.254 144.398 134.151 144.398 135.206C144.398 137.157 146.191 139.583 147.615 139.583C148.406 139.583 148.617 139.952 148.617 141.27C148.617 143.801 150.832 148.125 152.994 149.918C154.049 150.762 159.691 153.452 165.598 155.877C178.359 161.151 179.467 161.731 180.785 164.42C181.682 166.161 181.84 167.479 181.84 174.229C181.787 179.555 181.576 182.297 181.154 182.877C180.047 184.354 178.307 184.934 175.143 184.934C173.455 184.934 171.662 185.25 171.188 185.672C169.816 186.674 169.131 188.942 169.711 190.418C170.502 192.581 172.242 193.372 176.092 193.372C182.367 193.372 186.586 191.104 188.906 186.411C190.225 183.774 190.277 183.299 190.277 174.651C190.277 164.315 189.75 161.678 186.85 157.881C184.424 154.717 182.631 153.715 169.711 148.336C163.541 145.752 158.479 143.327 158.004 142.694C156.686 141.112 156.633 134.256 157.951 133.202C159.586 131.831 162.328 126.979 163.699 122.866C165.018 119.122 165.123 117.856 165.387 108.469C165.756 91.8052 164.596 87.4282 157.898 80.731C153.785 76.6177 149.408 74.1919 143.713 72.8735C139.652 71.9243 131.953 71.9243 127.945 72.8735Z" fill="#CC46A6" fill-opacity="0.5"/>
<path d="M16.7812 118.858C14.5137 119.702 14.1445 120.598 14.1445 125.713C14.1445 128.403 14.0391 130.618 13.8809 130.618C13.7227 130.618 11.6133 130.038 9.13477 129.299C3.07031 127.559 0.960938 128.403 0.960938 132.674C0.960938 134.995 2.4375 136.208 6.86719 137.526C8.97656 138.159 10.8223 138.739 10.9277 138.844C11.0332 138.897 9.87305 140.69 8.39648 142.799C6.91992 144.909 5.70703 147.071 5.70703 147.545C5.70703 149.286 6.86719 151.131 8.39648 151.764C10.7695 152.713 12.6152 151.606 15.5684 147.545L18.1523 143.96L20.6836 147.493C22.1074 149.549 23.8477 151.342 24.6914 151.711C27.5391 152.872 30.4395 150.868 30.4922 147.704C30.4922 147.124 29.2793 144.909 27.8027 142.799C26.3262 140.69 25.2188 138.897 25.3242 138.844C25.377 138.792 26.959 138.264 28.752 137.737C30.5977 137.21 32.7598 136.366 33.6562 135.838C35.0273 134.995 35.2383 134.52 35.2383 132.569C35.2383 130.249 34.4473 129.036 32.4961 128.35C31.7578 128.086 28.4355 128.825 23.7422 130.301C22.793 130.618 22.6875 130.354 22.4766 125.872C22.3184 122.022 22.0547 120.915 21.2109 120.071C20.1035 118.963 17.9941 118.383 16.7812 118.858Z" fill="#AD69A7" fill-opacity="0.6"/>
<path d="M252.24 118.963C250.184 119.86 249.656 121.073 249.445 125.924C249.234 130.354 249.129 130.618 248.18 130.301C243.486 128.825 240.164 128.086 239.426 128.35C237.475 129.036 236.684 130.249 236.684 132.569C236.684 134.52 236.895 134.995 238.266 135.838C239.162 136.366 241.324 137.21 243.17 137.737C244.963 138.264 246.545 138.792 246.598 138.844C246.703 138.897 245.596 140.69 244.119 142.799C242.643 144.909 241.43 147.124 241.43 147.704C241.482 150.868 244.383 152.872 247.23 151.711C248.074 151.342 249.814 149.549 251.238 147.493L253.77 143.96L256.354 147.545C259.307 151.606 261.152 152.713 263.525 151.764C265.055 151.131 266.215 149.286 266.215 147.545C266.215 147.071 265.002 144.909 263.525 142.799C262.049 140.69 260.889 138.897 260.994 138.844C261.1 138.739 262.945 138.159 265.055 137.526C269.484 136.208 270.961 134.995 270.961 132.674C270.961 128.403 268.852 127.559 262.787 129.299C260.309 130.038 258.199 130.618 258.041 130.618C257.883 130.618 257.777 128.403 257.777 125.713C257.777 121.653 257.619 120.598 256.881 119.913C255.668 118.858 253.559 118.436 252.24 118.963Z" fill="#AD69A7" fill-opacity="0.6"/>
<path d="M50.7949 202.442C48.791 203.602 48.4746 204.604 48.4219 209.297C48.4219 211.881 48.2109 213.938 48 213.938C47.7363 213.938 46.207 213.463 44.5723 212.936C41.7246 211.934 40.1426 211.67 38.2969 211.776C36.9258 211.881 35.2383 213.938 35.2383 215.573C35.2383 217.946 36.9258 219.422 41.25 220.793C43.4648 221.479 45.2578 222.217 45.2578 222.481C45.2578 222.692 44.2031 224.379 42.8848 226.172C40.8281 228.914 40.459 229.706 40.6172 231.498C40.7227 233.081 41.1445 233.872 42.1992 234.663C44.4668 236.35 46.5762 235.454 49.6875 231.34C51.1113 229.442 52.4297 227.913 52.6406 227.913C52.8516 227.913 54.1699 229.442 55.5938 231.34C58.7051 235.454 60.8145 236.35 63.082 234.663C64.1367 233.872 64.5586 233.081 64.6641 231.551C64.7695 229.811 64.4531 228.967 62.3965 226.225C61.0781 224.379 60.0234 222.745 60.0234 222.481C60.0234 222.217 61.8164 221.479 64.0312 220.793C68.3555 219.422 70.043 217.946 70.043 215.52C70.043 213.569 67.8809 211.618 65.7188 211.723C64.7695 211.776 62.5547 212.25 60.8672 212.883C59.127 213.463 57.5449 213.938 57.2812 213.938C57.0703 213.938 56.8594 211.881 56.8594 209.297C56.8066 204.551 56.4902 203.549 54.3809 202.442C52.957 201.651 52.166 201.651 50.7949 202.442Z" fill="#BA90B6" fill-opacity="0.3"/>
<path d="M217.436 202.442C215.432 203.602 215.115 204.604 215.062 209.297C215.062 211.881 214.852 213.938 214.641 213.938C214.377 213.938 212.795 213.463 211.055 212.883C209.367 212.25 207.152 211.776 206.203 211.723C204.041 211.618 201.879 213.569 201.879 215.52C201.879 217.946 203.566 219.422 207.891 220.793C210.105 221.479 211.898 222.217 211.898 222.481C211.898 222.745 210.844 224.379 209.525 226.225C207.469 228.967 207.152 229.811 207.258 231.551C207.363 233.081 207.785 233.872 208.84 234.663C211.107 236.35 213.217 235.454 216.328 231.34C217.752 229.442 219.07 227.913 219.281 227.913C219.492 227.913 220.811 229.442 222.234 231.34C225.346 235.454 227.455 236.35 229.723 234.663C230.777 233.872 231.199 233.081 231.305 231.498C231.463 229.706 231.094 228.914 229.037 226.172C227.719 224.379 226.664 222.692 226.664 222.481C226.664 222.217 228.457 221.479 230.672 220.793C234.996 219.422 236.684 217.946 236.684 215.573C236.684 213.938 234.996 211.881 233.625 211.776C231.779 211.67 230.197 211.934 227.35 212.936C225.715 213.463 224.186 213.938 223.922 213.938C223.711 213.938 223.5 211.881 223.5 209.297C223.447 204.551 223.131 203.549 221.021 202.442C219.598 201.651 218.807 201.651 217.436 202.442Z" fill="#BA90B6" fill-opacity="0.3"/>
<path d="M132.85 237.985C131.9 239.145 131.742 240.147 131.742 243.997V248.637L127.787 247.372C125.572 246.686 123.199 246.106 122.461 246.106C120.615 246.106 118.559 248.321 118.559 250.325C118.559 252.645 120.404 254.069 125.098 255.493L129.105 256.653L127.102 259.448C124.359 263.139 123.832 264.194 123.832 266.092C123.832 268.254 125.467 269.836 127.682 269.836C129.738 269.836 130.951 268.887 133.535 265.196C134.643 263.719 135.697 262.454 135.961 262.454C136.225 262.454 137.279 263.719 138.387 265.196C140.971 268.887 142.184 269.836 144.293 269.836C146.455 269.836 148.09 268.254 148.09 266.092C148.09 264.194 147.562 263.139 144.82 259.448L142.816 256.653L146.824 255.493C151.518 254.069 153.363 252.645 153.363 250.325C153.363 248.321 151.307 246.106 149.461 246.106C148.723 246.106 146.35 246.686 144.135 247.372L140.18 248.637V243.997C140.18 238.301 139.23 236.614 135.961 236.614C134.379 236.614 133.693 236.93 132.85 237.985Z" fill="#AD69A7" fill-opacity="0.6"/>
</g>
<defs>
<clipPath id="clip0">
<rect x="0.960938" y="0.36377" width="270" height="270" fill="white"/>
</clipPath>
</defs>
</svg>
