<svg width="270" height="271" viewBox="0 0 270 271" fill="none" xmlns="http://www.w3.org/2000/svg">
<g clip-path="url(#clip0)">
<path d="M62.7012 2.104C59.8008 4.00244 59.0625 6.11182 59.0625 12.3345V17.7661H53.4199C46.9863 17.7661 45.1406 18.4517 43.2422 21.563C42.3457 23.0396 42.1875 24.2524 42.1875 28.9458V34.6411H36.5449C30.1113 34.6411 28.2656 35.3267 26.3672 38.438C25.3125 40.1782 25.3125 41.3384 25.3125 152.766C25.3125 264.194 25.3125 265.354 26.3672 267.094C26.9473 268.043 28.1602 269.256 29.1094 269.836C30.7969 270.891 31.9043 270.891 95.4492 270.891C158.678 270.891 160.102 270.838 162.369 269.836C163.793 269.151 167.379 266.092 172.125 261.399L179.613 254.016H200.971C221.273 254.016 222.328 253.963 224.016 252.961C227.127 251.063 227.812 249.217 227.812 242.784V237.141H233.508C239.889 237.141 241.734 236.456 243.633 233.344C244.688 231.604 244.688 230.444 244.688 119.016C244.688 7.58838 244.688 6.42822 243.633 4.68799C243.053 3.73877 241.84 2.52588 240.891 1.9458C239.15 0.891113 238.043 0.891113 151.822 0.891113H64.4941L62.7012 2.104ZM236.25 118.752V228.704H232.031H227.812V139.055V49.4595L226.652 48.3521C224.438 46.3481 220.957 47.1919 219.955 49.9868C219.533 51.1997 219.375 79.2017 219.375 148.6V245.579H203.713H188.051L198.439 235.137C205.559 227.965 209.145 223.958 209.83 222.323C210.885 220.002 210.938 219 210.938 130.354C210.938 46.0317 210.885 40.6001 209.988 38.8599C209.514 37.8579 208.301 36.4868 207.299 35.854L205.506 34.6411H128.092H50.625V30.4224V26.2036H135H219.375V30.5278C219.375 35.3794 220.061 37.2251 222.117 38.1743C223.752 39.0181 226.494 38.2271 227.285 36.7505C227.602 36.2231 227.812 32.9536 227.812 29.5259C227.812 22.5122 227.18 20.772 224.016 18.8208C222.275 17.7661 221.168 17.7661 144.914 17.7661H67.5V13.2837V8.80127H151.875H236.25V118.752ZM202.5 129.563V215.995L182.355 216.153C163.213 216.311 162.053 216.364 160.312 217.366C159.205 217.999 157.992 219.422 157.307 220.793C156.094 223.114 156.094 223.43 156.094 243.047V262.981H94.9219H33.75V153.03V43.0786H118.125H202.5V129.563ZM196.699 224.643C196.699 224.696 189.475 231.973 180.615 240.833L164.531 256.917V240.674V224.485H180.615C189.475 224.485 196.699 224.538 196.699 224.643Z" fill="#CC46A6" fill-opacity="0.5"/>
<path d="M111.639 90.5395C106.576 92.1215 102.568 95.3383 99.9316 99.8207C97.7168 103.618 97.0312 107.414 97.0312 116.116C97.0312 124.026 97.0312 124.131 95.6602 125.397C92.9707 127.928 92.8125 128.719 92.8125 140.426C92.8125 155.666 94.0781 160.202 100.195 166.372C112.166 178.5 133.049 175.178 140.537 159.938C143.068 154.823 143.438 152.186 143.438 140.268C143.438 129.247 143.174 127.717 140.59 125.397C139.219 124.131 139.219 124.026 139.219 116.643C139.219 105.252 138.164 101.455 133.523 96.2875C128.145 90.2758 119.496 88.0082 111.639 90.5395ZM122.871 99.0297C126.035 100.454 128.039 102.405 129.516 105.569C130.676 107.942 130.781 108.944 130.781 115.694V123.235H118.125H105.469V116.063C105.469 107.098 105.943 105.305 109.424 101.877C113.379 97.8696 118.178 96.8676 122.871 99.0297ZM134.895 142.061C134.736 152.028 134.684 152.608 133.365 155.403C130.676 160.993 125.139 164.895 119.074 165.317C111.639 165.897 103.992 160.413 101.883 152.977C101.514 151.659 101.25 147.018 101.25 141.217V131.672H118.178H135.105L134.895 142.061Z" fill="#AD69A7" fill-opacity="0.6"/>
<path d="M115.225 141.428C114.064 142.536 113.906 143.168 113.906 146.438C113.906 149.707 114.064 150.34 115.225 151.448C116.912 153.188 119.338 153.188 121.131 151.395C122.344 150.182 122.449 149.76 122.238 146.069C122.08 142.694 121.869 141.955 120.814 141.112C119.127 139.688 116.754 139.846 115.225 141.428Z" fill="#BA90B6" fill-opacity="0.3"/>
<path d="M72.3516 110.842C66.1817 113.268 60.6446 115.641 60.0645 116.168C58.7989 117.276 58.7462 120.334 59.8536 127.559C64.2305 156.563 80.7891 184.776 104.15 203.127C110.9 208.401 116.332 211.829 118.02 211.829C122.555 211.829 141.539 196.008 151.19 184.143C165.217 166.952 175.447 142.43 176.977 122.18C177.293 118.278 177.188 117.54 176.344 116.485C175.078 114.956 154.301 106.887 151.664 106.887C149.607 106.887 147.656 108.786 147.656 110.895C147.656 113.321 149.713 114.639 159.258 118.278C164.32 120.229 168.539 121.811 168.592 121.864C168.803 122.022 167.01 131.936 166.061 135.627C160.418 157.776 148.131 177.973 131.678 192.159C126.141 196.958 118.969 202.336 118.178 202.336C117.861 202.336 115.857 201.124 113.801 199.594C92.338 184.354 77.0977 162.206 70.4532 136.682C69.1876 131.672 67.3419 122.18 67.6055 121.864C67.711 121.811 72.1407 120.071 77.4669 118.067C82.793 116.01 87.5919 113.901 88.1192 113.426C90.5977 111.211 88.4883 106.307 85.1133 106.413C84.2696 106.413 78.5215 108.417 72.3516 110.842Z" fill="#BA90B6" fill-opacity="0.3"/>
</g>
<defs>
<clipPath id="clip0">
<rect y="0.891113" width="270" height="270" fill="white"/>
</clipPath>
</defs>
</svg>
